<svg id="my-svg" width="100%" xmlns="http://www.w3.org/2000/svg" xmlns:xlink="http://www.w3.org/1999/xlink" class="flowchart" style="max-width: 1236.48px; background-color: transparent;" viewBox="0 0 1236.484375 1420.5032958984375" role="graphics-document document" aria-roledescription="flowchart-v2"><style>#my-svg{font-family:"trebuchet ms",verdana,arial,sans-serif;font-size:16px;fill:#e0e0e0;}@keyframes edge-animation-frame{from{stroke-dashoffset:0;}}@keyframes dash{to{stroke-dashoffset:0;}}#my-svg .edge-animation-slow{stroke-dasharray:9,5!important;stroke-dashoffset:900;animation:dash 50s linear infinite;stroke-linecap:round;}#my-svg .edge-animation-fast{stroke-dasharray:9,5!important;stroke-dashoffset:900;animation:dash 20s linear infinite;stroke-linecap:round;}#my-svg .error-icon{fill:#0f3460;}#my-svg .error-text{fill:#f0cb9f;stroke:#f0cb9f;}#my-svg .edge-thickness-normal{stroke-width:1px;}#my-svg .edge-thickness-thick{stroke-width:3.5px;}#my-svg .edge-pattern-solid{stroke-dasharray:0;}#my-svg .edge-thickness-invisible{stroke-width:0;fill:none;}#my-svg .edge-pattern-dashed{stroke-dasharray:3;}#my-svg .edge-pattern-dotted{stroke-dasharray:2;}#my-svg .marker{fill:#6c63ff;stroke:#6c63ff;}#my-svg .marker.cross{stroke:#6c63ff;}#my-svg svg{font-family:"trebuchet ms",verdana,arial,sans-serif;font-size:16px;}#my-svg p{margin:0;}#my-svg .label{font-family:"trebuchet ms",verdana,arial,sans-serif;color:#e0e0e0;}#my-svg .cluster-label text{fill:#e0e0e0;}#my-svg .cluster-label span{color:#e0e0e0;}#my-svg .cluster-label span p{background-color:transparent;}#my-svg .label text,#my-svg span{fill:#e0e0e0;color:#e0e0e0;}#my-svg .node rect,#my-svg .node circle,#my-svg .node ellipse,#my-svg .node polygon,#my-svg .node path{fill:#1a1a2e;stroke:#4a4a6a;stroke-width:1px;}#my-svg .rough-node .label text,#my-svg .node .label text,#my-svg .image-shape .label,#my-svg .icon-shape .label{text-anchor:middle;}#my-svg .node .katex path{fill:#000;stroke:#000;stroke-width:1px;}#my-svg .rough-node .label,#my-svg .node .label,#my-svg .image-shape .label,#my-svg .icon-shape .label{text-align:center;}#my-svg .node.clickable{cursor:pointer;}#my-svg .root .anchor path{fill:#6c63ff!important;stroke-width:0;stroke:#6c63ff;}#my-svg .arrowheadPath{fill:#f2eee8;}#my-svg .edgePath .path{stroke:#6c63ff;stroke-width:1px;}#my-svg .flowchart-link{stroke:#6c63ff;fill:none;}#my-svg .edgeLabel{background-color:#161b22;text-align:center;}#my-svg .edgeLabel p{background-color:#161b22;}#my-svg .edgeLabel rect{opacity:0.5;background-color:#161b22;fill:#161b22;}#my-svg .labelBkg{background-color:rgba(22, 27, 34, 0.5);}#my-svg .cluster rect{fill:#161b22;stroke:#30363d;stroke-width:1px;}#my-svg .cluster text{fill:#e0e0e0;}#my-svg .cluster span{color:#e0e0e0;}#my-svg div.mermaidTooltip{position:absolute;text-align:center;max-width:200px;padding:2px;font-family:"trebuchet ms",verdana,arial,sans-serif;font-size:12px;background:#0f3460;border:1px solid hsl(212.5925925926, 32.972972973%, 11.7647058824%);border-radius:2px;pointer-events:none;z-index:100;}#my-svg .flowchartTitleText{text-anchor:middle;font-size:18px;fill:#e0e0e0;}#my-svg rect.text{fill:none;stroke-width:0;}#my-svg .icon-shape,#my-svg .image-shape{background-color:#161b22;text-align:center;}#my-svg .icon-shape p,#my-svg .image-shape p{background-color:#161b22;padding:2px;}#my-svg .icon-shape .label rect,#my-svg .image-shape .label rect{opacity:0.5;background-color:#161b22;fill:#161b22;}#my-svg .label-icon{display:inline-block;height:1em;overflow:visible;vertical-align:-0.125em;}#my-svg .node .label-icon path{fill:currentColor;stroke:revert;stroke-width:revert;}#my-svg .node .neo-node{stroke:#4a4a6a;}#my-svg [data-look="neo"].node rect,#my-svg [data-look="neo"].cluster rect,#my-svg [data-look="neo"].node polygon{stroke:url(#my-svg-gradient);filter:drop-shadow( 1px 2px 2px rgba(185,185,185,1));}#my-svg [data-look="neo"].node path{stroke:url(#my-svg-gradient);stroke-width:1px;}#my-svg [data-look="neo"].node .outer-path{filter:drop-shadow( 1px 2px 2px rgba(185,185,185,1));}#my-svg [data-look="neo"].node .neo-line path{stroke:#4a4a6a;filter:none;}#my-svg [data-look="neo"].node circle{stroke:url(#my-svg-gradient);filter:drop-shadow( 1px 2px 2px rgba(185,185,185,1));}#my-svg [data-look="neo"].node circle .state-start{fill:#000000;}#my-svg [data-look="neo"].icon-shape .icon{fill:url(#my-svg-gradient);filter:drop-shadow( 1px 2px 2px rgba(185,185,185,1));}#my-svg [data-look="neo"].icon-shape .icon-neo path{stroke:url(#my-svg-gradient);filter:drop-shadow( 1px 2px 2px rgba(185,185,185,1));}#my-svg :root{--mermaid-font-family:"trebuchet ms",verdana,arial,sans-serif;}</style><g><marker id="my-svg_flowchart-v2-pointEnd" class="marker flowchart-v2" viewBox="0 0 10 10" refX="5" refY="5" markerUnits="userSpaceOnUse" markerWidth="8" markerHeight="8" orient="auto"><path d="M 0 0 L 10 5 L 0 10 z" class="arrowMarkerPath" style="stroke-width: 1; stroke-dasharray: 1, 0;"/></marker><marker id="my-svg_flowchart-v2-pointStart" class="marker flowchart-v2" viewBox="0 0 10 10" refX="4.5" refY="5" markerUnits="userSpaceOnUse" markerWidth="8" markerHeight="8" orient="auto"><path d="M 0 5 L 10 10 L 10 0 z" class="arrowMarkerPath" style="stroke-width: 1; stroke-dasharray: 1, 0;"/></marker><marker id="my-svg_flowchart-v2-pointEnd-margin" class="marker flowchart-v2" viewBox="0 0 11.5 14" refX="11.5" refY="7" markerUnits="userSpaceOnUse" markerWidth="10.5" markerHeight="14" orient="auto"><path d="M 0 0 L 11.5 7 L 0 14 z" class="arrowMarkerPath" style="stroke-width: 0; stroke-dasharray: 1, 0;"/></marker><marker id="my-svg_flowchart-v2-pointStart-margin" class="marker flowchart-v2" viewBox="0 0 11.5 14" refX="1" refY="7" markerUnits="userSpaceOnUse" markerWidth="11.5" markerHeight="14" orient="auto"><polygon points="0,7 11.5,14 11.5,0" class="arrowMarkerPath" style="stroke-width: 0; stroke-dasharray: 1, 0;"/></marker><marker id="my-svg_flowchart-v2-circleEnd" class="marker flowchart-v2" viewBox="0 0 10 10" refX="11" refY="5" markerUnits="userSpaceOnUse" markerWidth="11" markerHeight="11" orient="auto"><circle cx="5" cy="5" r="5" class="arrowMarkerPath" style="stroke-width: 1; stroke-dasharray: 1, 0;"/></marker><marker id="my-svg_flowchart-v2-circleStart" class="marker flowchart-v2" viewBox="0 0 10 10" refX="-1" refY="5" markerUnits="userSpaceOnUse" markerWidth="11" markerHeight="11" orient="auto"><circle cx="5" cy="5" r="5" class="arrowMarkerPath" style="stroke-width: 1; stroke-dasharray: 1, 0;"/></marker><marker id="my-svg_flowchart-v2-circleEnd-margin" class="marker flowchart-v2" viewBox="0 0 10 10" refY="5" refX="12.25" markerUnits="userSpaceOnUse" markerWidth="14" markerHeight="14" orient="auto"><circle cx="5" cy="5" r="5" class="arrowMarkerPath" style="stroke-width: 0; stroke-dasharray: 1, 0;"/></marker><marker id="my-svg_flowchart-v2-circleStart-margin" class="marker flowchart-v2" viewBox="0 0 10 10" refX="-2" refY="5" markerUnits="userSpaceOnUse" markerWidth="14" markerHeight="14" orient="auto"><circle cx="5" cy="5" r="5" class="arrowMarkerPath" style="stroke-width: 0; stroke-dasharray: 1, 0;"/></marker><marker id="my-svg_flowchart-v2-crossEnd" class="marker cross flowchart-v2" viewBox="0 0 11 11" refX="12" refY="5.2" markerUnits="userSpaceOnUse" markerWidth="11" markerHeight="11" orient="auto"><path d="M 1,1 l 9,9 M 10,1 l -9,9" class="arrowMarkerPath" style="stroke-width: 2; stroke-dasharray: 1, 0;"/></marker><marker id="my-svg_flowchart-v2-crossStart" class="marker cross flowchart-v2" viewBox="0 0 11 11" refX="-1" refY="5.2" markerUnits="userSpaceOnUse" markerWidth="11" markerHeight="11" orient="auto"><path d="M 1,1 l 9,9 M 10,1 l -9,9" class="arrowMarkerPath" style="stroke-width: 2; stroke-dasharray: 1, 0;"/></marker><marker id="my-svg_flowchart-v2-crossEnd-margin" class="marker cross flowchart-v2" viewBox="0 0 15 15" refX="17.7" refY="7.5" markerUnits="userSpaceOnUse" markerWidth="12" markerHeight="12" orient="auto"><path d="M 1,1 L 14,14 M 1,14 L 14,1" class="arrowMarkerPath" style="stroke-width: 2.5;"/></marker><marker id="my-svg_flowchart-v2-crossStart-margin" class="marker cross flowchart-v2" viewBox="0 0 15 15" refX="-3.5" refY="7.5" markerUnits="userSpaceOnUse" markerWidth="12" markerHeight="12" orient="auto"><path d="M 1,1 L 14,14 M 1,14 L 14,1" class="arrowMarkerPath" style="stroke-width: 2.5; stroke-dasharray: 1, 0;"/></marker><g class="root"><g class="clusters"><g class="cluster" id="my-svg-INFRA" data-look="classic"><rect style="" x="88.79296875" y="1260" width="1111.52734375" height="152.50333404541016"/><g class="cluster-label" transform="translate(594.822265625, 1260)"><foreignObject width="99.46875" height="24"><div xmlns="http://www.w3.org/1999/xhtml" style="display: table-cell; white-space: nowrap; line-height: 1.5;"><span class="nodeLabel"><p>Infrastructure</p></span></div></foreignObject></g></g><g class="cluster" id="my-svg-FUSE_ENGINE" data-look="classic"><rect style="" x="8" y="162" width="1220.484375" height="1048"/><g class="cluster-label" transform="translate(574.625, 162)"><foreignObject width="87.234375" height="24"><div xmlns="http://www.w3.org/1999/xhtml" style="display: table-cell; white-space: nowrap; line-height: 1.5;"><span class="nodeLabel"><p>FUSE Engine</p></span></div></foreignObject></g></g><g class="cluster" id="my-svg-CLIENT" data-look="classic"><rect style="" x="507.4296875" y="8" width="229.09375" height="104"/><g class="cluster-label" transform="translate(600.640625, 8)"><foreignObject width="42.671875" height="24"><div xmlns="http://www.w3.org/1999/xhtml" style="display: table-cell; white-space: nowrap; line-height: 1.5;"><span class="nodeLabel"><p>Client</p></span></div></foreignObject></g></g><g class="cluster" id="my-svg-DATA_LAYER" data-look="classic"><rect style="" x="45.77734375" y="1081" width="850.94140625" height="104"/><g class="cluster-label" transform="translate(432.677734375, 1081)"><foreignObject width="77.140625" height="24"><div xmlns="http://www.w3.org/1999/xhtml" style="display: table-cell; white-space: nowrap; line-height: 1.5;"><span class="nodeLabel"><p>Data Layer</p></span></div></foreignObject></g></g><g class="cluster" id="my-svg-BUSINESS_LAYER" data-look="classic"><rect style="" x="37.37890625" y="927" width="952.69140625" height="104"/><g class="cluster-label" transform="translate(462.013671875, 927)"><foreignObject width="103.421875" height="24"><div xmlns="http://www.w3.org/1999/xhtml" style="display: table-cell; white-space: nowrap; line-height: 1.5;"><span class="nodeLabel"><p>Business Layer</p></span></div></foreignObject></g></g><g class="cluster" id="my-svg-ACTOR_LAYER" data-look="classic"><rect style="" x="33.19921875" y="493" width="1172.25390625" height="360"/><g class="cluster-label" transform="translate(520.099609375, 493)"><foreignObject width="198.453125" height="24"><div xmlns="http://www.w3.org/1999/xhtml" style="display: table-cell; white-space: nowrap; line-height: 1.5;"><span class="nodeLabel"><p>Actor Layer  (ergo.services)</p></span></div></foreignObject></g></g><g class="cluster" id="my-svg-HTTP_LAYER" data-look="classic"><rect style="" x="481.09375" y="187" width="281.765625" height="256"/><g class="cluster-label" transform="translate(581.0546875, 187)"><foreignObject width="81.84375" height="24"><div xmlns="http://www.w3.org/1999/xhtml" style="display: table-cell; white-space: nowrap; line-height: 1.5;"><span class="nodeLabel"><p>HTTP Layer</p></span></div></foreignObject></g></g></g><g class="edgePaths"><path d="M621.977,87L621.977,91.167C621.977,95.333,621.977,103.667,621.977,112C621.977,120.333,621.977,128.667,621.977,137C621.977,145.333,621.977,153.667,621.977,162C621.977,170.333,621.977,178.667,621.977,186.333C621.977,194,621.977,201,621.977,204.5L621.977,208" id="my-svg-L_HTTP_REQ_MUX_0" class="edge-thickness-normal edge-pattern-solid edge-thickness-normal edge-pattern-solid flowchart-link" style=";" data-edge="true" data-et="edge" data-id="L_HTTP_REQ_MUX_0" data-points="W3sieCI6NjIxLjk3NjU2MjUsInkiOjg3fSx7IngiOjYyMS45NzY1NjI1LCJ5IjoxMTJ9LHsieCI6NjIxLjk3NjU2MjUsInkiOjEzN30seyJ4Ijo2MjEuOTc2NTYyNSwieSI6MTYyfSx7IngiOjYyMS45NzY1NjI1LCJ5IjoxODd9LHsieCI6NjIxLjk3NjU2MjUsInkiOjIxMn1d" data-look="classic" marker-end="url(#my-svg_flowchart-v2-pointEnd)"/><path d="M621.977,290L621.977,294.167C621.977,298.333,621.977,306.667,621.977,314.333C621.977,322,621.977,329,621.977,332.5L621.977,336" id="my-svg-L_MUX_WEB_0" class="edge-thickness-normal edge-pattern-solid edge-thickness-normal edge-pattern-solid flowchart-link" style=";" data-edge="true" data-et="edge" data-id="L_MUX_WEB_0" data-points="W3sieCI6NjIxLjk3NjU2MjUsInkiOjI5MH0seyJ4Ijo2MjEuOTc2NTYyNSwieSI6MzE1fSx7IngiOjYyMS45NzY1NjI1LCJ5IjozNDB9XQ==" data-look="classic" marker-end="url(#my-svg_flowchart-v2-pointEnd)"/><path d="M621.977,418L621.977,422.167C621.977,426.333,621.977,434.667,621.977,443C621.977,451.333,621.977,459.667,621.977,468C621.977,476.333,621.977,484.667,621.977,492.333C621.977,500,621.977,507,621.977,510.5L621.977,514" id="my-svg-L_WEB_SUP_0" class="edge-thickness-normal edge-pattern-solid edge-thickness-normal edge-pattern-solid flowchart-link" style=";" data-edge="true" data-et="edge" data-id="L_WEB_SUP_0" data-points="W3sieCI6NjIxLjk3NjU2MjUsInkiOjQxOH0seyJ4Ijo2MjEuOTc2NTYyNSwieSI6NDQzfSx7IngiOjYyMS45NzY1NjI1LCJ5Ijo0Njh9LHsieCI6NjIxLjk3NjU2MjUsInkiOjQ5M30seyJ4Ijo2MjEuOTc2NTYyNSwieSI6NTE4fV0=" data-look="classic" marker-end="url(#my-svg_flowchart-v2-pointEnd)"/><path d="M529.823,572L515.602,576.167C501.381,580.333,472.938,588.667,458.717,596.333C444.496,604,444.496,611,444.496,614.5L444.496,618" id="my-svg-L_SUP_INST_0" class="edge-thickness-normal edge-pattern-solid edge-thickness-normal edge-pattern-solid flowchart-link" style=";" data-edge="true" data-et="edge" data-id="L_SUP_INST_0" data-points="W3sieCI6NTI5LjgyMzI0MjE4NzUsInkiOjU3Mn0seyJ4Ijo0NDQuNDk2MDkzNzUsInkiOjU5N30seyJ4Ijo0NDQuNDk2MDkzNzUsInkiOjYyMn1d" data-look="classic" marker-end="url(#my-svg_flowchart-v2-pointEnd)"/><path d="M543.801,692.55L560.824,697.958C577.846,703.367,611.892,714.183,628.915,723.092C645.938,732,645.938,739,645.938,742.5L645.938,746" id="my-svg-L_INST_WH_0" class="edge-thickness-normal edge-pattern-solid edge-thickness-normal edge-pattern-solid flowchart-link" style=";" data-edge="true" data-et="edge" data-id="L_INST_WH_0" data-points="W3sieCI6NTQzLjgwMDc4MTI1LCJ5Ijo2OTIuNTUwMTE3MzE4NTQ0fSx7IngiOjY0NS45Mzc1LCJ5Ijo3MjV9LHsieCI6NjQ1LjkzNzUsInkiOjc1MH1d" data-look="classic" marker-end="url(#my-svg_flowchart-v2-pointEnd)"/><path d="M345.191,683.301L314.243,690.251C283.296,697.2,221.4,711.1,190.452,721.55C159.504,732,159.504,739,159.504,742.5L159.504,746" id="my-svg-L_INST_POOL_0" class="edge-thickness-normal edge-pattern-solid edge-thickness-normal edge-pattern-solid flowchart-link" style=";" data-edge="true" data-et="edge" data-id="L_INST_POOL_0" data-points="W3sieCI6MzQ1LjE5MTQwNjI1LCJ5Ijo2ODMuMzAwNjExMzEwNjE3MX0seyJ4IjoxNTkuNTAzOTA2MjUsInkiOjcyNX0seyJ4IjoxNTkuNTAzOTA2MjUsInkiOjc1MH1d" data-look="classic" marker-end="url(#my-svg_flowchart-v2-pointEnd)"/><path d="M715.206,828L722.607,832.167C730.007,836.333,744.808,844.667,752.209,855C759.609,865.333,759.609,877.667,759.609,890C759.609,902.333,759.609,914.667,759.609,924.333C759.609,934,759.609,941,759.609,944.5L759.609,948" id="my-svg-L_WH_SVC_WF_0" class="edge-thickness-normal edge-pattern-solid edge-thickness-normal edge-pattern-solid flowchart-link" style=";" data-edge="true" data-et="edge" data-id="L_WH_SVC_WF_0" data-points="W3sieCI6NzE1LjIwNjI5ODgyODEyNSwieSI6ODI4fSx7IngiOjc1OS42MDkzNzUsInkiOjg1M30seyJ4Ijo3NTkuNjA5Mzc1LCJ5Ijo4OTB9LHsieCI6NzU5LjYwOTM3NSwieSI6OTI3fSx7IngiOjc1OS42MDkzNzUsInkiOjk1Mn1d" data-look="classic" marker-end="url(#my-svg_flowchart-v2-pointEnd)"/><path d="M566.402,828L557.905,832.167C549.407,836.333,532.413,844.667,523.915,855C515.418,865.333,515.418,877.667,515.418,890C515.418,902.333,515.418,914.667,515.418,924.333C515.418,934,515.418,941,515.418,944.5L515.418,948" id="my-svg-L_WH_SVC_SCHEMA_0" class="edge-thickness-normal edge-pattern-solid edge-thickness-normal edge-pattern-solid flowchart-link" style=";" data-edge="true" data-et="edge" data-id="L_WH_SVC_SCHEMA_0" data-points="W3sieCI6NTY2LjQwMjE2MDY0NDUzMTIsInkiOjgyOH0seyJ4Ijo1MTUuNDE3OTY4NzUsInkiOjg1M30seyJ4Ijo1MTUuNDE3OTY4NzUsInkiOjg5MH0seyJ4Ijo1MTUuNDE3OTY4NzUsInkiOjkyN30seyJ4Ijo1MTUuNDE3OTY4NzUsInkiOjk1Mn1d" data-look="classic" marker-end="url(#my-svg_flowchart-v2-pointEnd)"/><path d="M159.504,828L159.504,832.167C159.504,836.333,159.504,844.667,159.504,855C159.504,865.333,159.504,877.667,159.504,890C159.504,902.333,159.504,914.667,159.504,924.333C159.504,934,159.504,941,159.504,944.5L159.504,948" id="my-svg-L_POOL_SVC_PKG_0" class="edge-thickness-normal edge-pattern-solid edge-thickness-normal edge-pattern-solid flowchart-link" style=";" data-edge="true" data-et="edge" data-id="L_POOL_SVC_PKG_0" data-points="W3sieCI6MTU5LjUwMzkwNjI1LCJ5Ijo4Mjh9LHsieCI6MTU5LjUwMzkwNjI1LCJ5Ijo4NTN9LHsieCI6MTU5LjUwMzkwNjI1LCJ5Ijo4OTB9LHsieCI6MTU5LjUwMzkwNjI1LCJ5Ijo5Mjd9LHsieCI6MTU5LjUwMzkwNjI1LCJ5Ijo5NTJ9XQ==" data-look="classic" marker-end="url(#my-svg_flowchart-v2-pointEnd)"/><path d="M769.373,1006L770.88,1010.167C772.387,1014.333,775.4,1022.667,776.907,1031C778.414,1039.333,778.414,1047.667,778.414,1056C778.414,1064.333,778.414,1072.667,778.414,1080.333C778.414,1088,778.414,1095,778.414,1098.5L778.414,1102" id="my-svg-L_SVC_WF_REPO_WF_0" class="edge-thickness-normal edge-pattern-solid edge-thickness-normal edge-pattern-solid flowchart-link" style=";" data-edge="true" data-et="edge" data-id="L_SVC_WF_REPO_WF_0" data-points="W3sieCI6NzY5LjM3MzM0NzM1NTc2OTMsInkiOjEwMDZ9LHsieCI6Nzc4LjQxNDA2MjUsInkiOjEwMzF9LHsieCI6Nzc4LjQxNDA2MjUsInkiOjEwNTZ9LHsieCI6Nzc4LjQxNDA2MjUsInkiOjEwODF9LHsieCI6Nzc4LjQxNDA2MjUsInkiOjExMDZ9XQ==" data-look="classic" marker-end="url(#my-svg_flowchart-v2-pointEnd)"/><path d="M667.906,991.072L617.356,997.727C566.806,1004.381,465.706,1017.691,415.156,1028.512C364.605,1039.333,364.605,1047.667,364.605,1056C364.605,1064.333,364.605,1072.667,364.605,1080.333C364.605,1088,364.605,1095,364.605,1098.5L364.605,1102" id="my-svg-L_SVC_WF_REPO_JOURNAL_0" class="edge-thickness-normal edge-pattern-solid edge-thickness-normal edge-pattern-solid flowchart-link" style=";" data-edge="true" data-et="edge" data-id="L_SVC_WF_REPO_JOURNAL_0" data-points="W3sieCI6NjY3LjkwNjI1LCJ5Ijo5OTEuMDcyMTkwNzQxNzg0N30seyJ4IjozNjQuNjA1NDY4NzUsInkiOjEwMzF9LHsieCI6MzY0LjYwNTQ2ODc1LCJ5IjoxMDU2fSx7IngiOjM2NC42MDU0Njg3NSwieSI6MTA4MX0seyJ4IjozNjQuNjA1NDY4NzUsInkiOjExMDZ9XQ==" data-look="classic" marker-end="url(#my-svg_flowchart-v2-pointEnd)"/><path d="M539.806,1006L543.569,1010.167C547.333,1014.333,554.86,1022.667,558.623,1031C562.387,1039.333,562.387,1047.667,562.387,1056C562.387,1064.333,562.387,1072.667,562.387,1080.333C562.387,1088,562.387,1095,562.387,1098.5L562.387,1102" id="my-svg-L_SVC_SCHEMA_REPO_GRAPH_0" class="edge-thickness-normal edge-pattern-solid edge-thickness-normal edge-pattern-solid flowchart-link" style=";" data-edge="true" data-et="edge" data-id="L_SVC_SCHEMA_REPO_GRAPH_0" data-points="W3sieCI6NTM5LjgwNTU4ODk0MjMwNzcsInkiOjEwMDZ9LHsieCI6NTYyLjM4NjcxODc1LCJ5IjoxMDMxfSx7IngiOjU2Mi4zODY3MTg3NSwieSI6MTA1Nn0seyJ4Ijo1NjIuMzg2NzE4NzUsInkiOjEwODF9LHsieCI6NTYyLjM4NjcxODc1LCJ5IjoxMTA2fV0=" data-look="classic" marker-end="url(#my-svg_flowchart-v2-pointEnd)"/><path d="M159.504,1006L159.504,1010.167C159.504,1014.333,159.504,1022.667,159.504,1031C159.504,1039.333,159.504,1047.667,159.504,1056C159.504,1064.333,159.504,1072.667,159.504,1080.333C159.504,1088,159.504,1095,159.504,1098.5L159.504,1102" id="my-svg-L_SVC_PKG_REPO_PKG_0" class="edge-thickness-normal edge-pattern-solid edge-thickness-normal edge-pattern-solid flowchart-link" style=";" data-edge="true" data-et="edge" data-id="L_SVC_PKG_REPO_PKG_0" data-points="W3sieCI6MTU5LjUwMzkwNjI1LCJ5IjoxMDA2fSx7IngiOjE1OS41MDM5MDYyNSwieSI6MTAzMX0seyJ4IjoxNTkuNTAzOTA2MjUsInkiOjEwNTZ9LHsieCI6MTU5LjUwMzkwNjI1LCJ5IjoxMDgxfSx7IngiOjE1OS41MDM5MDYyNSwieSI6MTEwNn1d" data-look="classic" marker-end="url(#my-svg_flowchart-v2-pointEnd)"/><path d="M778.414,1160L778.414,1164.167C778.414,1168.333,778.414,1176.667,778.414,1185C778.414,1193.333,778.414,1201.667,778.414,1210C778.414,1218.333,778.414,1226.667,778.414,1235C778.414,1243.333,778.414,1251.667,758.114,1263.898C737.815,1276.129,697.215,1292.258,676.916,1300.323L656.616,1308.387" id="my-svg-L_REPO_WF_PG_0" class="edge-thickness-normal edge-pattern-solid edge-thickness-normal edge-pattern-solid flowchart-link" style=";" data-edge="true" data-et="edge" data-id="L_REPO_WF_PG_0" data-points="W3sieCI6Nzc4LjQxNDA2MjUsInkiOjExNjB9LHsieCI6Nzc4LjQxNDA2MjUsInkiOjExODV9LHsieCI6Nzc4LjQxNDA2MjUsInkiOjEyMTB9LHsieCI6Nzc4LjQxNDA2MjUsInkiOjEyMzV9LHsieCI6Nzc4LjQxNDA2MjUsInkiOjEyNjB9LHsieCI6NjUyLjg5ODQzNzUsInkiOjEzMDkuODY0MDIxNTg4NTIxfV0=" data-look="classic" marker-end="url(#my-svg_flowchart-v2-pointEnd)"/><path d="M562.387,1160L562.387,1164.167C562.387,1168.333,562.387,1176.667,562.387,1185C562.387,1193.333,562.387,1201.667,562.387,1210C562.387,1218.333,562.387,1226.667,562.387,1235C562.387,1243.333,562.387,1251.667,563.528,1259.499C564.669,1267.331,566.95,1274.663,568.091,1278.328L569.232,1281.994" id="my-svg-L_REPO_GRAPH_PG_0" class="edge-thickness-normal edge-pattern-solid edge-thickness-normal edge-pattern-solid flowchart-link" style=";" data-edge="true" data-et="edge" data-id="L_REPO_GRAPH_PG_0" data-points="W3sieCI6NTYyLjM4NjcxODc1LCJ5IjoxMTYwfSx7IngiOjU2Mi4zODY3MTg3NSwieSI6MTE4NX0seyJ4Ijo1NjIuMzg2NzE4NzUsInkiOjEyMTB9LHsieCI6NTYyLjM4NjcxODc1LCJ5IjoxMjM1fSx7IngiOjU2Mi4zODY3MTg3NSwieSI6MTI2MH0seyJ4Ijo1NzAuNDIxMTA4NDg0ODA1OSwieSI6MTI4NS44MTMyMzA2MjkyNjEyfV0=" data-look="classic" marker-end="url(#my-svg_flowchart-v2-pointEnd)"/><path d="M364.605,1160L364.605,1164.167C364.605,1168.333,364.605,1176.667,364.605,1185C364.605,1193.333,364.605,1201.667,364.605,1210C364.605,1218.333,364.605,1226.667,364.605,1235C364.605,1243.333,364.605,1251.667,389.883,1264.521C415.161,1277.375,465.716,1294.749,490.994,1303.437L516.272,1312.124" id="my-svg-L_REPO_JOURNAL_PG_0" class="edge-thickness-normal edge-pattern-solid edge-thickness-normal edge-pattern-solid flowchart-link" style=";" data-edge="true" data-et="edge" data-id="L_REPO_JOURNAL_PG_0" data-points="W3sieCI6MzY0LjYwNTQ2ODc1LCJ5IjoxMTYwfSx7IngiOjM2NC42MDU0Njg3NSwieSI6MTE4NX0seyJ4IjozNjQuNjA1NDY4NzUsInkiOjEyMTB9LHsieCI6MzY0LjYwNTQ2ODc1LCJ5IjoxMjM1fSx7IngiOjM2NC42MDU0Njg3NSwieSI6MTI2MH0seyJ4Ijo1MjAuMDU0Njg3NSwieSI6MTMxMy40MjQwOTM1NDMzNDY4fV0=" data-look="classic" marker-end="url(#my-svg_flowchart-v2-pointEnd)"/><path d="M159.504,1160L159.504,1164.167C159.504,1168.333,159.504,1176.667,159.504,1185C159.504,1193.333,159.504,1201.667,159.504,1210C159.504,1218.333,159.504,1226.667,159.504,1235C159.504,1243.333,159.504,1251.667,218.939,1266.448C278.375,1281.229,397.246,1302.458,456.681,1313.072L516.117,1323.686" id="my-svg-L_REPO_PKG_PG_0" class="edge-thickness-normal edge-pattern-solid edge-thickness-normal edge-pattern-solid flowchart-link" style=";" data-edge="true" data-et="edge" data-id="L_REPO_PKG_PG_0" data-points="W3sieCI6MTU5LjUwMzkwNjI1LCJ5IjoxMTYwfSx7IngiOjE1OS41MDM5MDYyNSwieSI6MTE4NX0seyJ4IjoxNTkuNTAzOTA2MjUsInkiOjEyMTB9LHsieCI6MTU5LjUwMzkwNjI1LCJ5IjoxMjM1fSx7IngiOjE1OS41MDM5MDYyNSwieSI6MTI2MH0seyJ4Ijo1MjAuMDU0Njg3NSwieSI6MTMyNC4zODk1OTg5OTIzODU2fV0=" data-look="classic" marker-end="url(#my-svg_flowchart-v2-pointEnd)"/><path d="M841.185,1006L853.774,1010.167C866.363,1014.333,891.541,1022.667,904.13,1031C916.719,1039.333,916.719,1047.667,916.719,1056C916.719,1064.333,916.719,1072.667,916.719,1085.5C916.719,1098.333,916.719,1115.667,916.719,1133C916.719,1150.333,916.719,1167.667,916.719,1180.5C916.719,1193.333,916.719,1201.667,916.719,1210C916.719,1218.333,916.719,1226.667,916.719,1235C916.719,1243.333,916.719,1251.667,916.719,1259.578C916.719,1267.489,916.719,1274.979,916.719,1278.723L916.719,1282.468" id="my-svg-L_SVC_WF_S3_0" class="edge-thickness-normal edge-pattern-solid edge-thickness-normal edge-pattern-solid flowchart-link" style=";" data-edge="true" data-et="edge" data-id="L_SVC_WF_S3_0" data-points="W3sieCI6ODQxLjE4NTM5NjYzNDYxNTQsInkiOjEwMDZ9LHsieCI6OTE2LjcxODc1LCJ5IjoxMDMxfSx7IngiOjkxNi43MTg3NSwieSI6MTA1Nn0seyJ4Ijo5MTYuNzE4NzUsInkiOjEwODF9LHsieCI6OTE2LjcxODc1LCJ5IjoxMTMzfSx7IngiOjkxNi43MTg3NSwieSI6MTE4NX0seyJ4Ijo5MTYuNzE4NzUsInkiOjEyMTB9LHsieCI6OTE2LjcxODc1LCJ5IjoxMjM1fSx7IngiOjkxNi43MTg3NSwieSI6MTI2MH0seyJ4Ijo5MTYuNzE4NzUsInkiOjEyODYuNDY4MTczOTgwNzEzfV0=" data-look="classic" marker-end="url(#my-svg_flowchart-v2-pointEnd)"/><path d="M724.828,556.288L786.651,563.074C848.474,569.859,972.12,583.429,1033.943,600.881C1095.766,618.333,1095.766,639.667,1095.766,661C1095.766,682.333,1095.766,703.667,1095.766,725C1095.766,746.333,1095.766,767.667,1095.766,789C1095.766,810.333,1095.766,831.667,1095.766,848.5C1095.766,865.333,1095.766,877.667,1095.766,890C1095.766,902.333,1095.766,914.667,1095.766,929.5C1095.766,944.333,1095.766,961.667,1095.766,979C1095.766,996.333,1095.766,1013.667,1095.766,1026.5C1095.766,1039.333,1095.766,1047.667,1095.766,1056C1095.766,1064.333,1095.766,1072.667,1095.766,1085.5C1095.766,1098.333,1095.766,1115.667,1095.766,1133C1095.766,1150.333,1095.766,1167.667,1095.766,1180.5C1095.766,1193.333,1095.766,1201.667,1095.766,1210C1095.766,1218.333,1095.766,1226.667,1095.766,1235C1095.766,1243.333,1095.766,1251.667,1095.766,1259.333C1095.766,1267,1095.766,1274,1095.766,1277.5L1095.766,1281" id="my-svg-L_SUP_ETCD_0" class="edge-thickness-normal edge-pattern-dotted edge-thickness-normal edge-pattern-solid flowchart-link" style=";" data-edge="true" data-et="edge" data-id="L_SUP_ETCD_0" data-points="W3sieCI6NzI0LjgyODEyNSwieSI6NTU2LjI4ODMxNzI1NjE2Mjl9LHsieCI6MTA5NS43NjU2MjUsInkiOjU5N30seyJ4IjoxMDk1Ljc2NTYyNSwieSI6NjYxfSx7IngiOjEwOTUuNzY1NjI1LCJ5Ijo3MjV9LHsieCI6MTA5NS43NjU2MjUsInkiOjc4OX0seyJ4IjoxMDk1Ljc2NTYyNSwieSI6ODUzfSx7IngiOjEwOTUuNzY1NjI1LCJ5Ijo4OTB9LHsieCI6MTA5NS43NjU2MjUsInkiOjkyN30seyJ4IjoxMDk1Ljc2NTYyNSwieSI6OTc5fSx7IngiOjEwOTUuNzY1NjI1LCJ5IjoxMDMxfSx7IngiOjEwOTUuNzY1NjI1LCJ5IjoxMDU2fSx7IngiOjEwOTUuNzY1NjI1LCJ5IjoxMDgxfSx7IngiOjEwOTUuNzY1NjI1LCJ5IjoxMTMzfSx7IngiOjEwOTUuNzY1NjI1LCJ5IjoxMTg1fSx7IngiOjEwOTUuNzY1NjI1LCJ5IjoxMjEwfSx7IngiOjEwOTUuNzY1NjI1LCJ5IjoxMjM1fSx7IngiOjEwOTUuNzY1NjI1LCJ5IjoxMjYwfSx7IngiOjEwOTUuNzY1NjI1LCJ5IjoxMjg1fV0=" data-look="classic" marker-end="url(#my-svg_flowchart-v2-pointEnd)"/></g><g class="edgeLabels"><g class="edgeLabel"><g class="label" data-id="L_HTTP_REQ_MUX_0" transform="translate(0, 0)"><foreignObject width="0" height="0"><div xmlns="http://www.w3.org/1999/xhtml" class="labelBkg" style="display: table-cell; white-space: nowrap; line-height: 1.5; max-width: 200px; text-align: center;"><span class="edgeLabel"></span></div></foreignObject></g></g><g class="edgeLabel"><g class="label" data-id="L_MUX_WEB_0" transform="translate(0, 0)"><foreignObject width="0" height="0"><div xmlns="http://www.w3.org/1999/xhtml" class="labelBkg" style="display: table-cell; white-space: nowrap; line-height: 1.5; max-width: 200px; text-align: center;"><span class="edgeLabel"></span></div></foreignObject></g></g><g class="edgeLabel"><g class="label" data-id="L_WEB_SUP_0" transform="translate(0, 0)"><foreignObject width="0" height="0"><div xmlns="http://www.w3.org/1999/xhtml" class="labelBkg" style="display: table-cell; white-space: nowrap; line-height: 1.5; max-width: 200px; text-align: center;"><span class="edgeLabel"></span></div></foreignObject></g></g><g class="edgeLabel"><g class="label" data-id="L_SUP_INST_0" transform="translate(0, 0)"><foreignObject width="0" height="0"><div xmlns="http://www.w3.org/1999/xhtml" class="labelBkg" style="display: table-cell; white-space: nowrap; line-height: 1.5; max-width: 200px; text-align: center;"><span class="edgeLabel"></span></div></foreignObject></g></g><g class="edgeLabel"><g class="label" data-id="L_INST_WH_0" transform="translate(0, 0)"><foreignObject width="0" height="0"><div xmlns="http://www.w3.org/1999/xhtml" class="labelBkg" style="display: table-cell; white-space: nowrap; line-height: 1.5; max-width: 200px; text-align: center;"><span class="edgeLabel"></span></div></foreignObject></g></g><g class="edgeLabel"><g class="label" data-id="L_INST_POOL_0" transform="translate(0, 0)"><foreignObject width="0" height="0"><div xmlns="http://www.w3.org/1999/xhtml" class="labelBkg" style="display: table-cell; white-space: nowrap; line-height: 1.5; max-width: 200px; text-align: center;"><span class="edgeLabel"></span></div></foreignObject></g></g><g class="edgeLabel"><g class="label" data-id="L_WH_SVC_WF_0" transform="translate(0, 0)"><foreignObject width="0" height="0"><div xmlns="http://www.w3.org/1999/xhtml" class="labelBkg" style="display: table-cell; white-space: nowrap; line-height: 1.5; max-width: 200px; text-align: center;"><span class="edgeLabel"></span></div></foreignObject></g></g><g class="edgeLabel"><g class="label" data-id="L_WH_SVC_SCHEMA_0" transform="translate(0, 0)"><foreignObject width="0" height="0"><div xmlns="http://www.w3.org/1999/xhtml" class="labelBkg" style="display: table-cell; white-space: nowrap; line-height: 1.5; max-width: 200px; text-align: center;"><span class="edgeLabel"></span></div></foreignObject></g></g><g class="edgeLabel"><g class="label" data-id="L_POOL_SVC_PKG_0" transform="translate(0, 0)"><foreignObject width="0" height="0"><div xmlns="http://www.w3.org/1999/xhtml" class="labelBkg" style="display: table-cell; white-space: nowrap; line-height: 1.5; max-width: 200px; text-align: center;"><span class="edgeLabel"></span></div></foreignObject></g></g><g class="edgeLabel"><g class="label" data-id="L_SVC_WF_REPO_WF_0" transform="translate(0, 0)"><foreignObject width="0" height="0"><div xmlns="http://www.w3.org/1999/xhtml" class="labelBkg" style="display: table-cell; white-space: nowrap; line-height: 1.5; max-width: 200px; text-align: center;"><span class="edgeLabel"></span></div></foreignObject></g></g><g class="edgeLabel"><g class="label" data-id="L_SVC_WF_REPO_JOURNAL_0" transform="translate(0, 0)"><foreignObject width="0" height="0"><div xmlns="http://www.w3.org/1999/xhtml" class="labelBkg" style="display: table-cell; white-space: nowrap; line-height: 1.5; max-width: 200px; text-align: center;"><span class="edgeLabel"></span></div></foreignObject></g></g><g class="edgeLabel"><g class="label" data-id="L_SVC_SCHEMA_REPO_GRAPH_0" transform="translate(0, 0)"><foreignObject width="0" height="0"><div xmlns="http://www.w3.org/1999/xhtml" class="labelBkg" style="display: table-cell; white-space: nowrap; line-height: 1.5; max-width: 200px; text-align: center;"><span class="edgeLabel"></span></div></foreignObject></g></g><g class="edgeLabel"><g class="label" data-id="L_SVC_PKG_REPO_PKG_0" transform="translate(0, 0)"><foreignObject width="0" height="0"><div xmlns="http://www.w3.org/1999/xhtml" class="labelBkg" style="display: table-cell; white-space: nowrap; line-height: 1.5; max-width: 200px; text-align: center;"><span class="edgeLabel"></span></div></foreignObject></g></g><g class="edgeLabel"><g class="label" data-id="L_REPO_WF_PG_0" transform="translate(0, 0)"><foreignObject width="0" height="0"><div xmlns="http://www.w3.org/1999/xhtml" class="labelBkg" style="display: table-cell; white-space: nowrap; line-height: 1.5; max-width: 200px; text-align: center;"><span class="edgeLabel"></span></div></foreignObject></g></g><g class="edgeLabel"><g class="label" data-id="L_REPO_GRAPH_PG_0" transform="translate(0, 0)"><foreignObject width="0" height="0"><div xmlns="http://www.w3.org/1999/xhtml" class="labelBkg" style="display: table-cell; white-space: nowrap; line-height: 1.5; max-width: 200px; text-align: center;"><span class="edgeLabel"></span></div></foreignObject></g></g><g class="edgeLabel"><g class="label" data-id="L_REPO_JOURNAL_PG_0" transform="translate(0, 0)"><foreignObject width="0" height="0"><div xmlns="http://www.w3.org/1999/xhtml" class="labelBkg" style="display: table-cell; white-space: nowrap; line-height: 1.5; max-width: 200px; text-align: center;"><span class="edgeLabel"></span></div></foreignObject></g></g><g class="edgeLabel"><g class="label" data-id="L_REPO_PKG_PG_0" transform="translate(0, 0)"><foreignObject width="0" height="0"><div xmlns="http://www.w3.org/1999/xhtml" class="labelBkg" style="display: table-cell; white-space: nowrap; line-height: 1.5; max-width: 200px; text-align: center;"><span class="edgeLabel"></span></div></foreignObject></g></g><g class="edgeLabel"><g class="label" data-id="L_SVC_WF_S3_0" transform="translate(0, 0)"><foreignObject width="0" height="0"><div xmlns="http://www.w3.org/1999/xhtml" class="labelBkg" style="display: table-cell; white-space: nowrap; line-height: 1.5; max-width: 200px; text-align: center;"><span class="edgeLabel"></span></div></foreignObject></g></g><g class="edgeLabel" transform="translate(1095.765625, 890)"><g class="label" data-id="L_SUP_ETCD_0" transform="translate(-42.5, -12)"><foreignObject width="85" height="24"><div xmlns="http://www.w3.org/1999/xhtml" class="labelBkg" style="display: table-cell; white-space: nowrap; line-height: 1.5; max-width: 200px; text-align: center;"><span class="edgeLabel"><p>cluster sync</p></span></div></foreignObject></g></g></g><g class="nodes"><g class="node default" id="my-svg-flowchart-HTTP_REQ-0" data-look="classic" transform="translate(621.9765625, 60)"><rect class="basic label-container" style="" x="-79.546875" y="-27" width="159.09375" height="54"/><g class="label" style="" transform="translate(-49.546875, -12)"><rect/><foreignObject width="99.09375" height="24"><div xmlns="http://www.w3.org/1999/xhtml" style="display: table-cell; white-space: nowrap; line-height: 1.5; max-width: 200px; text-align: center;"><span class="nodeLabel"><p>HTTP Request</p></span></div></foreignObject></g></g><g class="node default" id="my-svg-flowchart-MUX-1" data-look="classic" transform="translate(621.9765625, 251)"><rect class="basic label-container" style="" x="-90.4296875" y="-39" width="180.859375" height="78"/><g class="label" style="" transform="translate(-60.4296875, -24)"><rect/><foreignObject width="120.859375" height="48"><div xmlns="http://www.w3.org/1999/xhtml" style="display: table-cell; white-space: nowrap; line-height: 1.5; max-width: 200px; text-align: center;"><span class="nodeLabel"><p>HTTP Mux Server<br /><i>gorilla/mux</i></p></span></div></foreignObject></g></g><g class="node default" id="my-svg-flowchart-WEB-2" data-look="classic" transform="translate(621.9765625, 379)"><rect class="basic label-container" style="" x="-105.8828125" y="-39" width="211.765625" height="78"/><g class="label" style="" transform="translate(-75.8828125, -24)"><rect/><foreignObject width="151.765625" height="48"><div xmlns="http://www.w3.org/1999/xhtml" style="display: table-cell; white-space: nowrap; line-height: 1.5; max-width: 200px; text-align: center;"><span class="nodeLabel"><p>WebWorker Pool<br /><i>Actor-based handlers</i></p></span></div></foreignObject></g></g><g class="node default" id="my-svg-flowchart-SUP-3" data-look="classic" transform="translate(621.9765625, 545)"><rect class="basic label-container" style="" x="-102.8515625" y="-27" width="205.703125" height="54"/><g class="label" style="" transform="translate(-72.8515625, -12)"><rect/><foreignObject width="145.703125" height="24"><div xmlns="http://www.w3.org/1999/xhtml" style="display: table-cell; white-space: nowrap; line-height: 1.5; max-width: 200px; text-align: center;"><span class="nodeLabel"><p>Workflow Supervisor</p></span></div></foreignObject></g></g><g class="node default" id="my-svg-flowchart-INST-4" data-look="classic" transform="translate(444.49609375, 661)"><rect class="basic label-container" style="" x="-99.3046875" y="-39" width="198.609375" height="78"/><g class="label" style="" transform="translate(-69.3046875, -24)"><rect/><foreignObject width="138.609375" height="48"><div xmlns="http://www.w3.org/1999/xhtml" style="display: table-cell; white-space: nowrap; line-height: 1.5; max-width: 200px; text-align: center;"><span class="nodeLabel"><p>Instance Supervisor<br /><i>per workflow</i></p></span></div></foreignObject></g></g><g class="node default" id="my-svg-flowchart-WH-5" data-look="classic" transform="translate(645.9375, 789)"><rect class="basic label-container" style="" x="-93.9609375" y="-39" width="187.921875" height="78"/><g class="label" style="" transform="translate(-63.9609375, -24)"><rect/><foreignObject width="127.921875" height="48"><div xmlns="http://www.w3.org/1999/xhtml" style="display: table-cell; white-space: nowrap; line-height: 1.5; max-width: 200px; text-align: center;"><span class="nodeLabel"><p>Workflow Handler<br /><i>graph walker</i></p></span></div></foreignObject></g></g><g class="node default" id="my-svg-flowchart-POOL-6" data-look="classic" transform="translate(159.50390625, 789)"><rect class="basic label-container" style="" x="-79.7578125" y="-39" width="159.515625" height="78"/><g class="label" style="" transform="translate(-49.7578125, -24)"><rect/><foreignObject width="99.515625" height="48"><div xmlns="http://www.w3.org/1999/xhtml" style="display: table-cell; white-space: nowrap; line-height: 1.5; max-width: 200px; text-align: center;"><span class="nodeLabel"><p>Function Pool<br /><i>worker actors</i></p></span></div></foreignObject></g></g><g class="node default" id="my-svg-flowchart-SVC_WF-7" data-look="classic" transform="translate(759.609375, 979)"><rect class="basic label-container" style="" x="-91.703125" y="-27" width="183.40625" height="54"/><g class="label" style="" transform="translate(-61.703125, -12)"><rect/><foreignObject width="123.40625" height="24"><div xmlns="http://www.w3.org/1999/xhtml" style="display: table-cell; white-space: nowrap; line-height: 1.5; max-width: 200px; text-align: center;"><span class="nodeLabel"><p>Workflow Service</p></span></div></foreignObject></g></g><g class="node default" id="my-svg-flowchart-SVC_PKG-8" data-look="classic" transform="translate(159.50390625, 979)"><rect class="basic label-container" style="" x="-87.125" y="-27" width="174.25" height="54"/><g class="label" style="" transform="translate(-57.125, -12)"><rect/><foreignObject width="114.25" height="24"><div xmlns="http://www.w3.org/1999/xhtml" style="display: table-cell; white-space: nowrap; line-height: 1.5; max-width: 200px; text-align: center;"><span class="nodeLabel"><p>Package Service</p></span></div></foreignObject></g></g><g class="node default" id="my-svg-flowchart-SVC_SCHEMA-9" data-look="classic" transform="translate(515.41796875, 979)"><rect class="basic label-container" style="" x="-85.640625" y="-27" width="171.28125" height="54"/><g class="label" style="" transform="translate(-55.640625, -12)"><rect/><foreignObject width="111.28125" height="24"><div xmlns="http://www.w3.org/1999/xhtml" style="display: table-cell; white-space: nowrap; line-height: 1.5; max-width: 200px; text-align: center;"><span class="nodeLabel"><p>Schema Service</p></span></div></foreignObject></g></g><g class="node default" id="my-svg-flowchart-REPO_WF-10" data-look="classic" transform="translate(778.4140625, 1133)"><rect class="basic label-container" style="" x="-83.3046875" y="-27" width="166.609375" height="54"/><g class="label" style="" transform="translate(-53.3046875, -12)"><rect/><foreignObject width="106.609375" height="24"><div xmlns="http://www.w3.org/1999/xhtml" style="display: table-cell; white-space: nowrap; line-height: 1.5; max-width: 200px; text-align: center;"><span class="nodeLabel"><p>Workflow Repo</p></span></div></foreignObject></g></g><g class="node default" id="my-svg-flowchart-REPO_GRAPH-11" data-look="classic" transform="translate(562.38671875, 1133)"><rect class="basic label-container" style="" x="-71.40625" y="-27" width="142.8125" height="54"/><g class="label" style="" transform="translate(-41.40625, -12)"><rect/><foreignObject width="82.8125" height="24"><div xmlns="http://www.w3.org/1999/xhtml" style="display: table-cell; white-space: nowrap; line-height: 1.5; max-width: 200px; text-align: center;"><span class="nodeLabel"><p>Graph Repo</p></span></div></foreignObject></g></g><g class="node default" id="my-svg-flowchart-REPO_JOURNAL-12" data-look="classic" transform="translate(364.60546875, 1133)"><rect class="basic label-container" style="" x="-76.375" y="-27" width="152.75" height="54"/><g class="label" style="" transform="translate(-46.375, -12)"><rect/><foreignObject width="92.75" height="24"><div xmlns="http://www.w3.org/1999/xhtml" style="display: table-cell; white-space: nowrap; line-height: 1.5; max-width: 200px; text-align: center;"><span class="nodeLabel"><p>Journal Repo</p></span></div></foreignObject></g></g><g class="node default" id="my-svg-flowchart-REPO_PKG-13" data-look="classic" transform="translate(159.50390625, 1133)"><rect class="basic label-container" style="" x="-78.7265625" y="-27" width="157.453125" height="54"/><g class="label" style="" transform="translate(-48.7265625, -12)"><rect/><foreignObject width="97.453125" height="24"><div xmlns="http://www.w3.org/1999/xhtml" style="display: table-cell; white-space: nowrap; line-height: 1.5; max-width: 200px; text-align: center;"><span class="nodeLabel"><p>Package Repo</p></span></div></foreignObject></g></g><g class="node default" id="my-svg-flowchart-PG-14" data-look="classic" transform="translate(586.4765625, 1336.251667022705)"><path d="M0,12.880256938552904 a66.421875,12.880256938552904 0,0,0 132.84375,0 a66.421875,12.880256938552904 0,0,0 -132.84375,0 l0,75.8802569385529 a66.421875,12.880256938552904 0,0,0 132.84375,0 l0,-75.8802569385529" class="basic label-container outer-path" style="" transform="translate(-66.421875, -50.820385407829356)"/><g class="label" style="" transform="translate(-58.921875, -14)"><rect/><foreignObject width="117.84375" height="48"><div xmlns="http://www.w3.org/1999/xhtml" style="display: table-cell; white-space: nowrap; line-height: 1.5; max-width: 200px; text-align: center;"><span class="nodeLabel"><p>PostgreSQL<br /><i>State &amp; journals</i></p></span></div></foreignObject></g></g><g class="node default" id="my-svg-flowchart-S3-15" data-look="classic" transform="translate(916.71875, 1336.251667022705)"><path d="M0,12.191802753762408 a59.4921875,12.191802753762408 0,0,0 118.984375,0 a59.4921875,12.191802753762408 0,0,0 -118.984375,0 l0,75.1918027537624 a59.4921875,12.191802753762408 0,0,0 118.984375,0 l0,-75.1918027537624" class="basic label-container outer-path" style="" transform="translate(-59.4921875, -49.78770413064361)"/><g class="label" style="" transform="translate(-51.9921875, -14)"><rect/><foreignObject width="103.984375" height="48"><div xmlns="http://www.w3.org/1999/xhtml" style="display: table-cell; white-space: nowrap; line-height: 1.5; max-width: 200px; text-align: center;"><span class="nodeLabel"><p>S3-Compatible<br /><i>Payload store</i></p></span></div></foreignObject></g></g><g class="node default" id="my-svg-flowchart-ETCD-16" data-look="classic" transform="translate(1095.765625, 1336.251667022705)"><path d="M0,13.167780867301662 a69.5546875,13.167780867301662 0,0,0 139.109375,0 a69.5546875,13.167780867301662 0,0,0 -139.109375,0 l0,76.16778086730166 a69.5546875,13.167780867301662 0,0,0 139.109375,0 l0,-76.16778086730166" class="basic label-container outer-path" style="" transform="translate(-69.5546875, -51.251671300952495)"/><g class="label" style="" transform="translate(-62.0546875, -14)"><rect/><foreignObject width="124.109375" height="48"><div xmlns="http://www.w3.org/1999/xhtml" style="display: table-cell; white-space: nowrap; line-height: 1.5; max-width: 200px; text-align: center;"><span class="nodeLabel"><p>etcd<br /><i>Cluster discovery</i></p></span></div></foreignObject></g></g></g></g></g><defs><filter id="my-svg-drop-shadow" height="130%" width="130%"><feDropShadow dx="4" dy="4" stdDeviation="0" flood-opacity="0.06" flood-color="#000000"/></filter></defs><defs><filter id="my-svg-drop-shadow-small" height="150%" width="150%"><feDropShadow dx="2" dy="2" stdDeviation="0" flood-opacity="0.06" flood-color="#000000"/></filter></defs><linearGradient id="my-svg-gradient" gradientUnits="objectBoundingBox" x1="0%" y1="0%" x2="100%" y2="0%"><stop offset="0%" stop-color="#4a4a6a" stop-opacity="1"/><stop offset="100%" stop-color="hsl(223.5, 7.619047619%, 6.4705882353%)" stop-opacity="1"/></linearGradient></svg>