<svg id="my-svg" width="100%" xmlns="http://www.w3.org/2000/svg" xmlns:xlink="http://www.w3.org/1999/xlink" class="flowchart" style="max-width: 2148.79px; background-color: transparent;" viewBox="0 0 2148.79248046875 1688.15625" role="graphics-document document" aria-roledescription="flowchart-v2"><style>#my-svg{font-family:"trebuchet ms",verdana,arial,sans-serif;font-size:16px;fill:#e0e0e0;}@keyframes edge-animation-frame{from{stroke-dashoffset:0;}}@keyframes dash{to{stroke-dashoffset:0;}}#my-svg .edge-animation-slow{stroke-dasharray:9,5!important;stroke-dashoffset:900;animation:dash 50s linear infinite;stroke-linecap:round;}#my-svg .edge-animation-fast{stroke-dasharray:9,5!important;stroke-dashoffset:900;animation:dash 20s linear infinite;stroke-linecap:round;}#my-svg .error-icon{fill:#0f3460;}#my-svg .error-text{fill:#f0cb9f;stroke:#f0cb9f;}#my-svg .edge-thickness-normal{stroke-width:1px;}#my-svg .edge-thickness-thick{stroke-width:3.5px;}#my-svg .edge-pattern-solid{stroke-dasharray:0;}#my-svg .edge-thickness-invisible{stroke-width:0;fill:none;}#my-svg .edge-pattern-dashed{stroke-dasharray:3;}#my-svg .edge-pattern-dotted{stroke-dasharray:2;}#my-svg .marker{fill:#6c63ff;stroke:#6c63ff;}#my-svg .marker.cross{stroke:#6c63ff;}#my-svg svg{font-family:"trebuchet ms",verdana,arial,sans-serif;font-size:16px;}#my-svg p{margin:0;}#my-svg .label{font-family:"trebuchet ms",verdana,arial,sans-serif;color:#e0e0e0;}#my-svg .cluster-label text{fill:#e0e0e0;}#my-svg .cluster-label span{color:#e0e0e0;}#my-svg .cluster-label span p{background-color:transparent;}#my-svg .label text,#my-svg span{fill:#e0e0e0;color:#e0e0e0;}#my-svg .node rect,#my-svg .node circle,#my-svg .node ellipse,#my-svg .node polygon,#my-svg .node path{fill:#1a1a2e;stroke:#4a4a6a;stroke-width:1px;}#my-svg .rough-node .label text,#my-svg .node .label text,#my-svg .image-shape .label,#my-svg .icon-shape .label{text-anchor:middle;}#my-svg .node .katex path{fill:#000;stroke:#000;stroke-width:1px;}#my-svg .rough-node .label,#my-svg .node .label,#my-svg .image-shape .label,#my-svg .icon-shape .label{text-align:center;}#my-svg .node.clickable{cursor:pointer;}#my-svg .root .anchor path{fill:#6c63ff!important;stroke-width:0;stroke:#6c63ff;}#my-svg .arrowheadPath{fill:#f2eee8;}#my-svg .edgePath .path{stroke:#6c63ff;stroke-width:1px;}#my-svg .flowchart-link{stroke:#6c63ff;fill:none;}#my-svg .edgeLabel{background-color:#161b22;text-align:center;}#my-svg .edgeLabel p{background-color:#161b22;}#my-svg .edgeLabel rect{opacity:0.5;background-color:#161b22;fill:#161b22;}#my-svg .labelBkg{background-color:rgba(22, 27, 34, 0.5);}#my-svg .cluster rect{fill:#161b22;stroke:#30363d;stroke-width:1px;}#my-svg .cluster text{fill:#e0e0e0;}#my-svg .cluster span{color:#e0e0e0;}#my-svg div.mermaidTooltip{position:absolute;text-align:center;max-width:200px;padding:2px;font-family:"trebuchet ms",verdana,arial,sans-serif;font-size:12px;background:#0f3460;border:1px solid hsl(212.5925925926, 32.972972973%, 11.7647058824%);border-radius:2px;pointer-events:none;z-index:100;}#my-svg .flowchartTitleText{text-anchor:middle;font-size:18px;fill:#e0e0e0;}#my-svg rect.text{fill:none;stroke-width:0;}#my-svg .icon-shape,#my-svg .image-shape{background-color:#161b22;text-align:center;}#my-svg .icon-shape p,#my-svg .image-shape p{background-color:#161b22;padding:2px;}#my-svg .icon-shape .label rect,#my-svg .image-shape .label rect{opacity:0.5;background-color:#161b22;fill:#161b22;}#my-svg .label-icon{display:inline-block;height:1em;overflow:visible;vertical-align:-0.125em;}#my-svg .node .label-icon path{fill:currentColor;stroke:revert;stroke-width:revert;}#my-svg .node .neo-node{stroke:#4a4a6a;}#my-svg [data-look="neo"].node rect,#my-svg [data-look="neo"].cluster rect,#my-svg [data-look="neo"].node polygon{stroke:url(#my-svg-gradient);filter:drop-shadow( 1px 2px 2px rgba(185,185,185,1));}#my-svg [data-look="neo"].node path{stroke:url(#my-svg-gradient);stroke-width:1px;}#my-svg [data-look="neo"].node .outer-path{filter:drop-shadow( 1px 2px 2px rgba(185,185,185,1));}#my-svg [data-look="neo"].node .neo-line path{stroke:#4a4a6a;filter:none;}#my-svg [data-look="neo"].node circle{stroke:url(#my-svg-gradient);filter:drop-shadow( 1px 2px 2px rgba(185,185,185,1));}#my-svg [data-look="neo"].node circle .state-start{fill:#000000;}#my-svg [data-look="neo"].icon-shape .icon{fill:url(#my-svg-gradient);filter:drop-shadow( 1px 2px 2px rgba(185,185,185,1));}#my-svg [data-look="neo"].icon-shape .icon-neo path{stroke:url(#my-svg-gradient);filter:drop-shadow( 1px 2px 2px rgba(185,185,185,1));}#my-svg :root{--mermaid-font-family:"trebuchet ms",verdana,arial,sans-serif;}</style><g><marker id="my-svg_flowchart-v2-pointEnd" class="marker flowchart-v2" viewBox="0 0 10 10" refX="5" refY="5" markerUnits="userSpaceOnUse" markerWidth="8" markerHeight="8" orient="auto"><path d="M 0 0 L 10 5 L 0 10 z" class="arrowMarkerPath" style="stroke-width: 1; stroke-dasharray: 1, 0;"/></marker><marker id="my-svg_flowchart-v2-pointStart" class="marker flowchart-v2" viewBox="0 0 10 10" refX="4.5" refY="5" markerUnits="userSpaceOnUse" markerWidth="8" markerHeight="8" orient="auto"><path d="M 0 5 L 10 10 L 10 0 z" class="arrowMarkerPath" style="stroke-width: 1; stroke-dasharray: 1, 0;"/></marker><marker id="my-svg_flowchart-v2-pointEnd-margin" class="marker flowchart-v2" viewBox="0 0 11.5 14" refX="11.5" refY="7" markerUnits="userSpaceOnUse" markerWidth="10.5" markerHeight="14" orient="auto"><path d="M 0 0 L 11.5 7 L 0 14 z" class="arrowMarkerPath" style="stroke-width: 0; stroke-dasharray: 1, 0;"/></marker><marker id="my-svg_flowchart-v2-pointStart-margin" class="marker flowchart-v2" viewBox="0 0 11.5 14" refX="1" refY="7" markerUnits="userSpaceOnUse" markerWidth="11.5" markerHeight="14" orient="auto"><polygon points="0,7 11.5,14 11.5,0" class="arrowMarkerPath" style="stroke-width: 0; stroke-dasharray: 1, 0;"/></marker><marker id="my-svg_flowchart-v2-circleEnd" class="marker flowchart-v2" viewBox="0 0 10 10" refX="11" refY="5" markerUnits="userSpaceOnUse" markerWidth="11" markerHeight="11" orient="auto"><circle cx="5" cy="5" r="5" class="arrowMarkerPath" style="stroke-width: 1; stroke-dasharray: 1, 0;"/></marker><marker id="my-svg_flowchart-v2-circleStart" class="marker flowchart-v2" viewBox="0 0 10 10" refX="-1" refY="5" markerUnits="userSpaceOnUse" markerWidth="11" markerHeight="11" orient="auto"><circle cx="5" cy="5" r="5" class="arrowMarkerPath" style="stroke-width: 1; stroke-dasharray: 1, 0;"/></marker><marker id="my-svg_flowchart-v2-circleEnd-margin" class="marker flowchart-v2" viewBox="0 0 10 10" refY="5" refX="12.25" markerUnits="userSpaceOnUse" markerWidth="14" markerHeight="14" orient="auto"><circle cx="5" cy="5" r="5" class="arrowMarkerPath" style="stroke-width: 0; stroke-dasharray: 1, 0;"/></marker><marker id="my-svg_flowchart-v2-circleStart-margin" class="marker flowchart-v2" viewBox="0 0 10 10" refX="-2" refY="5" markerUnits="userSpaceOnUse" markerWidth="14" markerHeight="14" orient="auto"><circle cx="5" cy="5" r="5" class="arrowMarkerPath" style="stroke-width: 0; stroke-dasharray: 1, 0;"/></marker><marker id="my-svg_flowchart-v2-crossEnd" class="marker cross flowchart-v2" viewBox="0 0 11 11" refX="12" refY="5.2" markerUnits="userSpaceOnUse" markerWidth="11" markerHeight="11" orient="auto"><path d="M 1,1 l 9,9 M 10,1 l -9,9" class="arrowMarkerPath" style="stroke-width: 2; stroke-dasharray: 1, 0;"/></marker><marker id="my-svg_flowchart-v2-crossStart" class="marker cross flowchart-v2" viewBox="0 0 11 11" refX="-1" refY="5.2" markerUnits="userSpaceOnUse" markerWidth="11" markerHeight="11" orient="auto"><path d="M 1,1 l 9,9 M 10,1 l -9,9" class="arrowMarkerPath" style="stroke-width: 2; stroke-dasharray: 1, 0;"/></marker><marker id="my-svg_flowchart-v2-crossEnd-margin" class="marker cross flowchart-v2" viewBox="0 0 15 15" refX="17.7" refY="7.5" markerUnits="userSpaceOnUse" markerWidth="12" markerHeight="12" orient="auto"><path d="M 1,1 L 14,14 M 1,14 L 14,1" class="arrowMarkerPath" style="stroke-width: 2.5;"/></marker><marker id="my-svg_flowchart-v2-crossStart-margin" class="marker cross flowchart-v2" viewBox="0 0 15 15" refX="-3.5" refY="7.5" markerUnits="userSpaceOnUse" markerWidth="12" markerHeight="12" orient="auto"><path d="M 1,1 L 14,14 M 1,14 L 14,1" class="arrowMarkerPath" style="stroke-width: 2.5; stroke-dasharray: 1, 0;"/></marker><g class="root"><g class="clusters"><g class="cluster" id="my-svg-PARALLEL" data-look="classic"><rect style="" x="8" y="651" width="522.359375" height="128"/><g class="cluster-label" transform="translate(204.6171875, 651)"><foreignObject width="129.125" height="24"><div xmlns="http://www.w3.org/1999/xhtml" style="display: table-cell; white-space: nowrap; line-height: 1.5;"><span class="nodeLabel"><p>Parallel Execution</p></span></div></foreignObject></g></g><g class="cluster" id="my-svg-BRANCHING" data-look="classic"><rect style="" x="905.6088714599609" y="1552.15625" width="1095.75390625" height="128"/><g class="cluster-label" transform="translate(1396.876449584961, 1552.15625)"><foreignObject width="113.21875" height="24"><div xmlns="http://www.w3.org/1999/xhtml" style="display: table-cell; white-space: nowrap; line-height: 1.5;"><span class="nodeLabel"><p>Edge Resolution</p></span></div></foreignObject></g></g><g class="cluster" id="my-svg-EXEC" data-look="classic"><rect style="" x="765.6830902099609" y="498" width="1154.8125" height="1004.15625"/><g class="cluster-label" transform="translate(1288.479965209961, 498)"><foreignObject width="109.21875" height="24"><div xmlns="http://www.w3.org/1999/xhtml" style="display: table-cell; white-space: nowrap; line-height: 1.5;"><span class="nodeLabel"><p>Execution Loop</p></span></div></foreignObject></g></g><g class="cluster" id="my-svg-INIT" data-look="classic"><rect style="" x="1013.2416839599609" y="136" width="319.09375" height="312"/><g class="cluster-label" transform="translate(1127.491683959961, 136)"><foreignObject width="90.59375" height="24"><div xmlns="http://www.w3.org/1999/xhtml" style="display: table-cell; white-space: nowrap; line-height: 1.5;"><span class="nodeLabel"><p>Initialization</p></span></div></foreignObject></g></g><g class="cluster" id="my-svg-NODE_EXEC" data-look="classic"><rect style="" x="1074.714340209961" y="933" width="539.75390625" height="296.75"/><g class="cluster-label" transform="translate(1288.856918334961, 933)"><foreignObject width="111.46875" height="24"><div xmlns="http://www.w3.org/1999/xhtml" style="display: table-cell; white-space: nowrap; line-height: 1.5;"><span class="nodeLabel"><p>Node Execution</p></span></div></foreignObject></g></g></g><g class="edgePaths"><path d="M1172.789,86L1172.789,90.167C1172.789,94.333,1172.789,102.667,1172.789,111C1172.789,119.333,1172.789,127.667,1172.789,135.333C1172.789,143,1172.789,150,1172.789,153.5L1172.789,157" id="my-svg-L_TRIGGER_LOAD_0" class="edge-thickness-normal edge-pattern-solid edge-thickness-normal edge-pattern-solid flowchart-link" style=";" data-edge="true" data-et="edge" data-id="L_TRIGGER_LOAD_0" data-points="W3sieCI6MTE3Mi43ODg1NTg5NTk5NjEsInkiOjg2fSx7IngiOjExNzIuNzg4NTU4OTU5OTYxLCJ5IjoxMTF9LHsieCI6MTE3Mi43ODg1NTg5NTk5NjEsInkiOjEzNn0seyJ4IjoxMTcyLjc4ODU1ODk1OTk2MSwieSI6MTYxfV0=" data-look="classic" marker-end="url(#my-svg_flowchart-v2-pointEnd)"/><path d="M1172.789,215L1172.789,219.167C1172.789,223.333,1172.789,231.667,1172.789,239.333C1172.789,247,1172.789,254,1172.789,257.5L1172.789,261" id="my-svg-L_LOAD_SPAWN_0" class="edge-thickness-normal edge-pattern-solid edge-thickness-normal edge-pattern-solid flowchart-link" style=";" data-edge="true" data-et="edge" data-id="L_LOAD_SPAWN_0" data-points="W3sieCI6MTE3Mi43ODg1NTg5NTk5NjEsInkiOjIxNX0seyJ4IjoxMTcyLjc4ODU1ODk1OTk2MSwieSI6MjQwfSx7IngiOjExNzIuNzg4NTU4OTU5OTYxLCJ5IjoyNjV9XQ==" data-look="classic" marker-end="url(#my-svg_flowchart-v2-pointEnd)"/><path d="M1172.789,319L1172.789,323.167C1172.789,327.333,1172.789,335.667,1172.789,343.333C1172.789,351,1172.789,358,1172.789,361.5L1172.789,365" id="my-svg-L_SPAWN_JOURNAL_0" class="edge-thickness-normal edge-pattern-solid edge-thickness-normal edge-pattern-solid flowchart-link" style=";" data-edge="true" data-et="edge" data-id="L_SPAWN_JOURNAL_0" data-points="W3sieCI6MTE3Mi43ODg1NTg5NTk5NjEsInkiOjMxOX0seyJ4IjoxMTcyLjc4ODU1ODk1OTk2MSwieSI6MzQ0fSx7IngiOjExNzIuNzg4NTU4OTU5OTYxLCJ5IjozNjl9XQ==" data-look="classic" marker-end="url(#my-svg_flowchart-v2-pointEnd)"/><path d="M1172.789,423L1172.789,427.167C1172.789,431.333,1172.789,439.667,1172.789,448C1172.789,456.333,1172.789,464.667,1172.789,473C1172.789,481.333,1172.789,489.667,1172.789,497.333C1172.789,505,1172.789,512,1172.789,515.5L1172.789,519" id="my-svg-L_JOURNAL_RESOLVE_0" class="edge-thickness-normal edge-pattern-solid edge-thickness-normal edge-pattern-solid flowchart-link" style=";" data-edge="true" data-et="edge" data-id="L_JOURNAL_RESOLVE_0" data-points="W3sieCI6MTE3Mi43ODg1NTg5NTk5NjEsInkiOjQyM30seyJ4IjoxMTcyLjc4ODU1ODk1OTk2MSwieSI6NDQ4fSx7IngiOjExNzIuNzg4NTU4OTU5OTYxLCJ5Ijo0NzN9LHsieCI6MTE3Mi43ODg1NTg5NTk5NjEsInkiOjQ5OH0seyJ4IjoxMTcyLjc4ODU1ODk1OTk2MSwieSI6NTIzfV0=" data-look="classic" marker-end="url(#my-svg_flowchart-v2-pointEnd)"/><path d="M1216.184,577L1226.095,583.167C1236.007,589.333,1255.829,601.667,1265.741,614C1275.652,626.333,1275.652,638.667,1275.652,655.5C1275.652,672.333,1275.652,693.667,1275.652,715C1275.652,736.333,1275.652,757.667,1275.652,772.5C1275.652,787.333,1275.652,795.667,1283.322,803.7C1290.993,811.733,1306.334,819.466,1314.004,823.333L1321.674,827.199" id="my-svg-L_RESOLVE_SPAWN_ACTOR_0" class="edge-thickness-normal edge-pattern-solid edge-thickness-normal edge-pattern-solid flowchart-link" style=";" data-edge="true" data-et="edge" data-id="L_RESOLVE_SPAWN_ACTOR_0" data-points="W3sieCI6MTIxNi4xODQwMDU3MzczMDQ3LCJ5Ijo1Nzd9LHsieCI6MTI3NS42NTE4NDAyMDk5NjEsInkiOjYxNH0seyJ4IjoxMjc1LjY1MTg0MDIwOTk2MSwieSI6NjUxfSx7IngiOjEyNzUuNjUxODQwMjA5OTYxLCJ5Ijo3MTV9LHsieCI6MTI3NS42NTE4NDAyMDk5NjEsInkiOjc3OX0seyJ4IjoxMjc1LjY1MTg0MDIwOTk2MSwieSI6ODA0fSx7IngiOjEzMjUuMjQ2MTkxMTcxNDk5NSwieSI6ODI5fV0=" data-look="classic" marker-end="url(#my-svg_flowchart-v2-pointEnd)"/><path d="M1378.808,883L1378.808,887.167C1378.808,891.333,1378.808,899.667,1378.808,908C1378.808,916.333,1378.808,924.667,1378.808,932.333C1378.808,940,1378.808,947,1378.808,950.5L1378.808,954" id="my-svg-L_SPAWN_ACTOR_FN_0" class="edge-thickness-normal edge-pattern-solid edge-thickness-normal edge-pattern-solid flowchart-link" style=";" data-edge="true" data-et="edge" data-id="L_SPAWN_ACTOR_FN_0" data-points="W3sieCI6MTM3OC44MDgwOTAyMDk5NjEsInkiOjg4M30seyJ4IjoxMzc4LjgwODA5MDIwOTk2MSwieSI6OTA4fSx7IngiOjEzNzguODA4MDkwMjA5OTYxLCJ5Ijo5MzN9LHsieCI6MTM3OC44MDgwOTAyMDk5NjEsInkiOjk1OH1d" data-look="classic" marker-end="url(#my-svg_flowchart-v2-pointEnd)"/><path d="M1327.929,1012L1316.309,1018.167C1304.688,1024.333,1281.447,1036.667,1277.557,1053.612C1273.667,1070.557,1289.127,1092.114,1296.857,1102.893L1304.587,1113.671" id="my-svg-L_FN_RETRY_0" class="edge-thickness-normal edge-pattern-solid edge-thickness-normal edge-pattern-solid flowchart-link" style=";" data-edge="true" data-et="edge" data-id="L_FN_RETRY_0" data-points="W3sieCI6MTMyNy45MjkzMDYwMzAyNzM0LCJ5IjoxMDEyfSx7IngiOjEyNTguMjA2NTI3NzA5OTYxLCJ5IjoxMDQ5fSx7IngiOjEzMDYuOTE3NzgxNjQ4ODUwNywieSI6MTExNi45MjE1NTg1NjExMTAzfV0=" data-look="classic" marker-end="url(#my-svg_flowchart-v2-pointEnd)"/><path d="M1343.942,1113.134L1349.452,1102.445C1354.961,1091.756,1365.98,1070.378,1371.645,1054.189C1377.31,1037.999,1377.621,1026.999,1377.777,1021.499L1377.932,1015.998" id="my-svg-L_RETRY_FN_0" class="edge-thickness-normal edge-pattern-solid edge-thickness-normal edge-pattern-solid flowchart-link" style=";" data-edge="true" data-et="edge" data-id="L_RETRY_FN_0" data-points="W3sieCI6MTM0My45NDIwOTY4Njk2NzM2LCJ5IjoxMTEzLjEzNDAwNjY1OTcxMjd9LHsieCI6MTM3Ni45OTk0OTY0NTk5NjEsInkiOjEwNDl9LHsieCI6MTM3OC4wNDUwODk3MjE2Nzk3LCJ5IjoxMDEyfV0=" data-look="classic" marker-end="url(#my-svg_flowchart-v2-pointEnd)"/><path d="M1290.333,1012L1270.126,1018.167C1249.918,1024.333,1209.504,1036.667,1189.297,1048.333C1169.089,1060,1169.089,1071,1169.089,1076.5L1169.089,1082" id="my-svg-L_FN_TIMEOUT_0" class="edge-thickness-normal edge-pattern-solid edge-thickness-normal edge-pattern-solid flowchart-link" style=";" data-edge="true" data-et="edge" data-id="L_FN_TIMEOUT_0" data-points="W3sieCI6MTI5MC4zMzI5OTI1NTM3MTEsInkiOjEwMTJ9LHsieCI6MTE2OS4wODkzNDAyMDk5NjEsInkiOjEwNDl9LHsieCI6MTE2OS4wODkzNDAyMDk5NjEsInkiOjEwODZ9XQ==" data-look="classic" marker-end="url(#my-svg_flowchart-v2-pointEnd)"/><path d="M1169.089,1204.75L1169.089,1208.917C1169.089,1213.083,1169.089,1221.417,1169.089,1231.75C1169.089,1242.083,1169.089,1254.417,1169.089,1281.201C1169.089,1307.984,1169.089,1349.219,1169.089,1388.453C1169.089,1427.688,1169.089,1464.922,1169.089,1487.706C1169.089,1510.49,1169.089,1518.823,1169.089,1527.156C1169.089,1535.49,1169.089,1543.823,1215.488,1556.186C1261.886,1568.548,1354.682,1584.94,1401.08,1593.136L1447.478,1601.332" id="my-svg-L_TIMEOUT_ERROR_0" class="edge-thickness-normal edge-pattern-solid edge-thickness-normal edge-pattern-solid flowchart-link" style=";" data-edge="true" data-et="edge" data-id="L_TIMEOUT_ERROR_0" data-points="W3sieCI6MTE2OS4wODkzNDAyMDk5NjEsInkiOjEyMDQuNzV9LHsieCI6MTE2OS4wODkzNDAyMDk5NjEsInkiOjEyMjkuNzV9LHsieCI6MTE2OS4wODkzNDAyMDk5NjEsInkiOjEyNjYuNzV9LHsieCI6MTE2OS4wODkzNDAyMDk5NjEsInkiOjEzOTAuNDUzMTI1fSx7IngiOjExNjkuMDg5MzQwMjA5OTYxLCJ5IjoxNTAyLjE1NjI1fSx7IngiOjExNjkuMDg5MzQwMjA5OTYxLCJ5IjoxNTI3LjE1NjI1fSx7IngiOjExNjkuMDg5MzQwMjA5OTYxLCJ5IjoxNTUyLjE1NjI1fSx7IngiOjE0NTEuNDE3NDY1MjA5OTYxLCJ5IjoxNjAyLjAyNzU2Mjc0Nzk3M31d" data-look="classic" marker-end="url(#my-svg_flowchart-v2-pointEnd)"/><path d="M1327.324,1194.234L1327.324,1200.154C1327.324,1206.073,1327.324,1217.911,1327.324,1229.997C1327.324,1242.083,1327.324,1254.417,1327.324,1281.201C1327.324,1307.984,1327.324,1349.219,1327.324,1388.453C1327.324,1427.688,1327.324,1464.922,1327.324,1487.706C1327.324,1510.49,1327.324,1518.823,1327.324,1527.156C1327.324,1535.49,1327.324,1543.823,1347.37,1554.276C1367.416,1564.729,1407.508,1577.303,1427.555,1583.589L1447.601,1589.876" id="my-svg-L_RETRY_ERROR_0" class="edge-thickness-normal edge-pattern-solid edge-thickness-normal edge-pattern-solid flowchart-link" style=";" data-edge="true" data-et="edge" data-id="L_RETRY_ERROR_0" data-points="W3sieCI6MTMyNy4zMjM3MTUyMDk5NjEsInkiOjExOTQuMjM0Mzc1fSx7IngiOjEzMjcuMzIzNzE1MjA5OTYxLCJ5IjoxMjI5Ljc1fSx7IngiOjEzMjcuMzIzNzE1MjA5OTYxLCJ5IjoxMjY2Ljc1fSx7IngiOjEzMjcuMzIzNzE1MjA5OTYxLCJ5IjoxMzkwLjQ1MzEyNX0seyJ4IjoxMzI3LjMyMzcxNTIwOTk2MSwieSI6MTUwMi4xNTYyNX0seyJ4IjoxMzI3LjMyMzcxNTIwOTk2MSwieSI6MTUyNy4xNTYyNX0seyJ4IjoxMzI3LjMyMzcxNTIwOTk2MSwieSI6MTU1Mi4xNTYyNX0seyJ4IjoxNDUxLjQxNzQ2NTIwOTk2MSwieSI6MTU5MS4wNzI3MTg4NzY4MDg3fV0=" data-look="classic" marker-end="url(#my-svg_flowchart-v2-pointEnd)"/><path d="M1413.722,1012L1421.696,1018.167C1429.67,1024.333,1445.618,1036.667,1453.592,1058.896C1461.566,1081.125,1461.566,1113.25,1461.566,1143.375C1461.566,1173.5,1461.566,1201.625,1461.566,1221.854C1461.566,1242.083,1461.566,1254.417,1472.904,1273.119C1484.242,1291.82,1506.919,1316.891,1518.257,1329.426L1529.595,1341.961" id="my-svg-L_FN_EVAL_0" class="edge-thickness-normal edge-pattern-solid edge-thickness-normal edge-pattern-solid flowchart-link" style=";" data-edge="true" data-et="edge" data-id="L_FN_EVAL_0" data-points="W3sieCI6MTQxMy43MjE1NDIzNTgzOTg0LCJ5IjoxMDEyfSx7IngiOjE0NjEuNTY1OTAyNzA5OTYxLCJ5IjoxMDQ5fSx7IngiOjE0NjEuNTY1OTAyNzA5OTYxLCJ5IjoxMTQ1LjM3NX0seyJ4IjoxNDYxLjU2NTkwMjcwOTk2MSwieSI6MTIyOS43NX0seyJ4IjoxNDYxLjU2NTkwMjcwOTk2MSwieSI6MTI2Ni43NX0seyJ4IjoxNTMyLjI3ODU4MTE1NzAzNjEsInkiOjEzNDQuOTI3OTQ2NTUyOTI0OH1d" data-look="classic" marker-end="url(#my-svg_flowchart-v2-pointEnd)"/><path d="M1500.46,1404.159L1413.473,1420.492C1326.487,1436.825,1152.515,1469.491,1065.529,1489.99C978.542,1510.49,978.542,1518.823,978.542,1527.156C978.542,1535.49,978.542,1543.823,980.382,1551.563C982.221,1559.304,985.899,1566.452,987.738,1570.026L989.577,1573.6" id="my-svg-L_EVAL_COND_0" class="edge-thickness-normal edge-pattern-solid edge-thickness-normal edge-pattern-solid flowchart-link" style=";" data-edge="true" data-et="edge" data-id="L_EVAL_COND_0" data-points="W3sieCI6MTUwMC40NTk1NjUyMjc3ODkyLCJ5IjoxNDA0LjE1OTI4NzUxNzgyOH0seyJ4Ijo5NzguNTQyNDY1MjA5OTYwOSwieSI6MTUwMi4xNTYyNX0seyJ4Ijo5NzguNTQyNDY1MjA5OTYwOSwieSI6MTUyNy4xNTYyNX0seyJ4Ijo5NzguNTQyNDY1MjA5OTYwOSwieSI6MTU1Mi4xNTYyNX0seyJ4Ijo5OTEuNDA3MTUwMjY4NTU0NywieSI6MTU3Ny4xNTYyNX1d" data-look="classic" marker-end="url(#my-svg_flowchart-v2-pointEnd)"/><path d="M1633.125,1417.488L1664.271,1431.599C1695.417,1445.711,1757.708,1473.933,1788.854,1492.211C1819.999,1510.49,1819.999,1518.823,1819.999,1527.156C1819.999,1535.49,1819.999,1543.823,1824.095,1551.708C1828.191,1559.593,1836.383,1567.03,1840.479,1570.749L1844.575,1574.468" id="my-svg-L_EVAL_DEFAULT_0" class="edge-thickness-normal edge-pattern-solid edge-thickness-normal edge-pattern-solid flowchart-link" style=";" data-edge="true" data-et="edge" data-id="L_EVAL_DEFAULT_0" data-points="W3sieCI6MTYzMy4xMjUxMzU5OTQ0MDksInkiOjE0MTcuNDg3NjQxNzE1NTUyMn0seyJ4IjoxODE5Ljk5OTQ5NjQ1OTk2MSwieSI6MTUwMi4xNTYyNX0seyJ4IjoxODE5Ljk5OTQ5NjQ1OTk2MSwieSI6MTUyNy4xNTYyNX0seyJ4IjoxODE5Ljk5OTQ5NjQ1OTk2MSwieSI6MTU1Mi4xNTYyNX0seyJ4IjoxODQ3LjUzNzAzMzA4MTA1NDcsInkiOjE1NzcuMTU2MjV9XQ==" data-look="classic" marker-end="url(#my-svg_flowchart-v2-pointEnd)"/><path d="M1573.457,1477.156L1573.457,1481.323C1573.457,1485.49,1573.457,1493.823,1573.457,1502.156C1573.457,1510.49,1573.457,1518.823,1573.457,1527.156C1573.457,1535.49,1573.457,1543.823,1571.085,1551.599C1568.713,1559.375,1563.969,1566.594,1561.597,1570.204L1559.226,1573.813" id="my-svg-L_EVAL_ERROR_0" class="edge-thickness-normal edge-pattern-solid edge-thickness-normal edge-pattern-solid flowchart-link" style=";" data-edge="true" data-et="edge" data-id="L_EVAL_ERROR_0" data-points="W3sieCI6MTU3My40NTY1Mjc3MDk5NjEsInkiOjE0NzcuMTU2MjV9LHsieCI6MTU3My40NTY1Mjc3MDk5NjEsInkiOjE1MDIuMTU2MjV9LHsieCI6MTU3My40NTY1Mjc3MDk5NjEsInkiOjE1MjcuMTU2MjV9LHsieCI6MTU3My40NTY1Mjc3MDk5NjEsInkiOjE1NTIuMTU2MjV9LHsieCI6MTU1Ny4wMjg5MTU0MDUyNzM0LCJ5IjoxNTc3LjE1NjI1fV0=" data-look="classic" marker-end="url(#my-svg_flowchart-v2-pointEnd)"/><path d="M1037.824,1577.156L1040.639,1572.99C1043.454,1568.823,1049.084,1560.49,1051.899,1552.156C1054.714,1543.823,1054.714,1535.49,1054.714,1527.156C1054.714,1518.823,1054.714,1510.49,1054.714,1487.706C1054.714,1464.922,1054.714,1427.688,1054.714,1388.453C1054.714,1349.219,1054.714,1307.984,1054.714,1281.201C1054.714,1254.417,1054.714,1242.083,1054.714,1221.854C1054.714,1201.625,1054.714,1173.5,1054.714,1143.375C1054.714,1113.25,1054.714,1081.125,1054.714,1054.396C1054.714,1027.667,1054.714,1006.333,1054.714,987C1054.714,967.667,1054.714,950.333,1054.714,937.5C1054.714,924.667,1054.714,916.333,1054.714,903.5C1054.714,890.667,1054.714,873.333,1054.714,856C1054.714,838.667,1054.714,821.333,1054.714,808.5C1054.714,795.667,1054.714,787.333,1054.714,772.5C1054.714,757.667,1054.714,736.333,1054.714,715C1054.714,693.667,1054.714,672.333,1054.714,655.5C1054.714,638.667,1054.714,626.333,1065.505,614.318C1076.296,602.302,1097.878,590.604,1108.669,584.755L1119.459,578.906" id="my-svg-L_COND_RESOLVE_0" class="edge-thickness-normal edge-pattern-solid edge-thickness-normal edge-pattern-solid flowchart-link" style=";" data-edge="true" data-et="edge" data-id="L_COND_RESOLVE_0" data-points="W3sieCI6MTAzNy44MjQzODY1OTY2Nzk3LCJ5IjoxNTc3LjE1NjI1fSx7IngiOjEwNTQuNzE0MzQwMjA5OTYxLCJ5IjoxNTUyLjE1NjI1fSx7IngiOjEwNTQuNzE0MzQwMjA5OTYxLCJ5IjoxNTI3LjE1NjI1fSx7IngiOjEwNTQuNzE0MzQwMjA5OTYxLCJ5IjoxNTAyLjE1NjI1fSx7IngiOjEwNTQuNzE0MzQwMjA5OTYxLCJ5IjoxMzkwLjQ1MzEyNX0seyJ4IjoxMDU0LjcxNDM0MDIwOTk2MSwieSI6MTI2Ni43NX0seyJ4IjoxMDU0LjcxNDM0MDIwOTk2MSwieSI6MTIyOS43NX0seyJ4IjoxMDU0LjcxNDM0MDIwOTk2MSwieSI6MTE0NS4zNzV9LHsieCI6MTA1NC43MTQzNDAyMDk5NjEsInkiOjEwNDl9LHsieCI6MTA1NC43MTQzNDAyMDk5NjEsInkiOjk4NX0seyJ4IjoxMDU0LjcxNDM0MDIwOTk2MSwieSI6OTMzfSx7IngiOjEwNTQuNzE0MzQwMjA5OTYxLCJ5Ijo5MDh9LHsieCI6MTA1NC43MTQzNDAyMDk5NjEsInkiOjg1Nn0seyJ4IjoxMDU0LjcxNDM0MDIwOTk2MSwieSI6ODA0fSx7IngiOjEwNTQuNzE0MzQwMjA5OTYxLCJ5Ijo3Nzl9LHsieCI6MTA1NC43MTQzNDAyMDk5NjEsInkiOjcxNX0seyJ4IjoxMDU0LjcxNDM0MDIwOTk2MSwieSI6NjUxfSx7IngiOjEwNTQuNzE0MzQwMjA5OTYxLCJ5Ijo2MTR9LHsieCI6MTEyMi45NzU5OTc5MjQ4MDQ3LCJ5Ijo1Nzd9XQ==" data-look="classic" marker-end="url(#my-svg_flowchart-v2-pointEnd)"/><path d="M1896.589,1577.156L1897.24,1572.99C1897.891,1568.823,1899.194,1560.49,1899.845,1552.156C1900.496,1543.823,1900.496,1535.49,1900.496,1527.156C1900.496,1518.823,1900.496,1510.49,1900.496,1487.706C1900.496,1464.922,1900.496,1427.688,1900.496,1388.453C1900.496,1349.219,1900.496,1307.984,1900.496,1281.201C1900.496,1254.417,1900.496,1242.083,1900.496,1221.854C1900.496,1201.625,1900.496,1173.5,1900.496,1143.375C1900.496,1113.25,1900.496,1081.125,1900.496,1054.396C1900.496,1027.667,1900.496,1006.333,1900.496,987C1900.496,967.667,1900.496,950.333,1900.496,937.5C1900.496,924.667,1900.496,916.333,1900.496,903.5C1900.496,890.667,1900.496,873.333,1900.496,856C1900.496,838.667,1900.496,821.333,1900.496,808.5C1900.496,795.667,1900.496,787.333,1900.496,772.5C1900.496,757.667,1900.496,736.333,1900.496,715C1900.496,693.667,1900.496,672.333,1900.496,655.5C1900.496,638.667,1900.496,626.333,1797.487,611.107C1694.479,595.881,1488.462,577.763,1385.453,568.703L1282.445,559.644" id="my-svg-L_DEFAULT_RESOLVE_0" class="edge-thickness-normal edge-pattern-solid edge-thickness-normal edge-pattern-solid flowchart-link" style=";" data-edge="true" data-et="edge" data-id="L_DEFAULT_RESOLVE_0" data-points="W3sieCI6MTg5Ni41ODkzNDAyMDk5NjEsInkiOjE1NzcuMTU2MjV9LHsieCI6MTkwMC40OTU1OTAyMDk5NjEsInkiOjE1NTIuMTU2MjV9LHsieCI6MTkwMC40OTU1OTAyMDk5NjEsInkiOjE1MjcuMTU2MjV9LHsieCI6MTkwMC40OTU1OTAyMDk5NjEsInkiOjE1MDIuMTU2MjV9LHsieCI6MTkwMC40OTU1OTAyMDk5NjEsInkiOjEzOTAuNDUzMTI1fSx7IngiOjE5MDAuNDk1NTkwMjA5OTYxLCJ5IjoxMjY2Ljc1fSx7IngiOjE5MDAuNDk1NTkwMjA5OTYxLCJ5IjoxMjI5Ljc1fSx7IngiOjE5MDAuNDk1NTkwMjA5OTYxLCJ5IjoxMTQ1LjM3NX0seyJ4IjoxOTAwLjQ5NTU5MDIwOTk2MSwieSI6MTA0OX0seyJ4IjoxOTAwLjQ5NTU5MDIwOTk2MSwieSI6OTg1fSx7IngiOjE5MDAuNDk1NTkwMjA5OTYxLCJ5Ijo5MzN9LHsieCI6MTkwMC40OTU1OTAyMDk5NjEsInkiOjkwOH0seyJ4IjoxOTAwLjQ5NTU5MDIwOTk2MSwieSI6ODU2fSx7IngiOjE5MDAuNDk1NTkwMjA5OTYxLCJ5Ijo4MDR9LHsieCI6MTkwMC40OTU1OTAyMDk5NjEsInkiOjc3OX0seyJ4IjoxOTAwLjQ5NTU5MDIwOTk2MSwieSI6NzE1fSx7IngiOjE5MDAuNDk1NTkwMjA5OTYxLCJ5Ijo2NTF9LHsieCI6MTkwMC40OTU1OTAyMDk5NjEsInkiOjYxNH0seyJ4IjoxMjc4LjQ2MDQzMzk1OTk2MSwieSI6NTU5LjI5MzU3NTE3NDU5MDZ9XQ==" data-look="classic" marker-end="url(#my-svg_flowchart-v2-pointEnd)"/><path d="M1611.386,1597.098L1642.822,1589.608C1674.257,1582.117,1737.128,1567.137,1768.564,1555.48C1799.999,1543.823,1799.999,1535.49,1799.999,1527.156C1799.999,1518.823,1799.999,1510.49,1799.999,1487.706C1799.999,1464.922,1799.999,1427.688,1799.999,1388.453C1799.999,1349.219,1799.999,1307.984,1799.999,1281.201C1799.999,1254.417,1799.999,1242.083,1799.999,1221.854C1799.999,1201.625,1799.999,1173.5,1799.999,1143.375C1799.999,1113.25,1799.999,1081.125,1799.999,1054.396C1799.999,1027.667,1799.999,1006.333,1799.999,987C1799.999,967.667,1799.999,950.333,1799.999,937.5C1799.999,924.667,1799.999,916.333,1799.999,903.5C1799.999,890.667,1799.999,873.333,1799.999,856C1799.999,838.667,1799.999,821.333,1799.999,808.5C1799.999,795.667,1799.999,787.333,1799.999,772.5C1799.999,757.667,1799.999,736.333,1799.999,715C1799.999,693.667,1799.999,672.333,1799.999,655.5C1799.999,638.667,1799.999,626.333,1713.74,611.365C1627.48,596.396,1454.96,578.792,1368.7,569.991L1282.44,561.189" id="my-svg-L_ERROR_RESOLVE_0" class="edge-thickness-normal edge-pattern-solid edge-thickness-normal edge-pattern-solid flowchart-link" style=";" data-edge="true" data-et="edge" data-id="L_ERROR_RESOLVE_0" data-points="W3sieCI6MTYxMS4zODYyMTUyMDk5NjEsInkiOjE1OTcuMDk4MDA0NzczNzgxN30seyJ4IjoxNzk5Ljk5OTQ5NjQ1OTk2MSwieSI6MTU1Mi4xNTYyNX0seyJ4IjoxNzk5Ljk5OTQ5NjQ1OTk2MSwieSI6MTUyNy4xNTYyNX0seyJ4IjoxNzk5Ljk5OTQ5NjQ1OTk2MSwieSI6MTUwMi4xNTYyNX0seyJ4IjoxNzk5Ljk5OTQ5NjQ1OTk2MSwieSI6MTM5MC40NTMxMjV9LHsieCI6MTc5OS45OTk0OTY0NTk5NjEsInkiOjEyNjYuNzV9LHsieCI6MTc5OS45OTk0OTY0NTk5NjEsInkiOjEyMjkuNzV9LHsieCI6MTc5OS45OTk0OTY0NTk5NjEsInkiOjExNDUuMzc1fSx7IngiOjE3OTkuOTk5NDk2NDU5OTYxLCJ5IjoxMDQ5fSx7IngiOjE3OTkuOTk5NDk2NDU5OTYxLCJ5Ijo5ODV9LHsieCI6MTc5OS45OTk0OTY0NTk5NjEsInkiOjkzM30seyJ4IjoxNzk5Ljk5OTQ5NjQ1OTk2MSwieSI6OTA4fSx7IngiOjE3OTkuOTk5NDk2NDU5OTYxLCJ5Ijo4NTZ9LHsieCI6MTc5OS45OTk0OTY0NTk5NjEsInkiOjgwNH0seyJ4IjoxNzk5Ljk5OTQ5NjQ1OTk2MSwieSI6Nzc5fSx7IngiOjE3OTkuOTk5NDk2NDU5OTYxLCJ5Ijo3MTV9LHsieCI6MTc5OS45OTk0OTY0NTk5NjEsInkiOjY1MX0seyJ4IjoxNzk5Ljk5OTQ5NjQ1OTk2MSwieSI6NjE0fSx7IngiOjEyNzguNDYwNDMzOTU5OTYxLCJ5Ijo1NjAuNzgyNjU2MzUzMTUwN31d" data-look="classic" marker-end="url(#my-svg_flowchart-v2-pointEnd)"/><path d="M1067.117,570.796L1030.527,577.997C993.938,585.197,920.76,599.599,884.171,612.966C847.582,626.333,847.582,638.667,745.378,654.034C643.174,669.402,438.766,687.805,336.563,697.006L234.359,706.207" id="my-svg-L_RESOLVE_FORK_0" class="edge-thickness-normal edge-pattern-solid edge-thickness-normal edge-pattern-solid flowchart-link" style=";" data-edge="true" data-et="edge" data-id="L_RESOLVE_FORK_0" data-points="W3sieCI6MTA2Ny4xMTY2ODM5NTk5NjEsInkiOjU3MC43OTU5ODMzMjc5MjgxfSx7IngiOjg0Ny41ODE1Mjc3MDk5NjA5LCJ5Ijo2MTR9LHsieCI6ODQ3LjU4MTUyNzcwOTk2MDksInkiOjY1MX0seyJ4IjoyMzAuMzc1LCJ5Ijo3MDYuNTY1NTUwMTg1NzA3NH1d" data-look="classic" marker-end="url(#my-svg_flowchart-v2-pointEnd)"/><path d="M136.688,754L136.688,758.167C136.688,762.333,136.688,770.667,372.405,779C608.122,787.333,1079.557,795.667,1302.116,803.807C1524.675,811.948,1498.357,819.896,1485.199,823.87L1472.04,827.844" id="my-svg-L_FORK_SPAWN_ACTOR_0" class="edge-thickness-normal edge-pattern-solid edge-thickness-normal edge-pattern-solid flowchart-link" style=";" data-edge="true" data-et="edge" data-id="L_FORK_SPAWN_ACTOR_0" data-points="W3sieCI6MTM2LjY4NzUsInkiOjc1NH0seyJ4IjoxMzYuNjg3NSwieSI6Nzc5fSx7IngiOjE1NTAuOTkxNjgzOTU5OTYxLCJ5Ijo4MDR9LHsieCI6MTQ2OC4yMTExMTAwNDE2OTE3LCJ5Ijo4Mjl9XQ==" data-look="classic" marker-end="url(#my-svg_flowchart-v2-pointEnd)"/><path d="M387.867,754L387.867,758.167C387.867,762.333,387.867,770.667,595.634,779C803.401,787.333,1218.935,795.667,1426.701,808.5C1634.468,821.333,1634.468,838.667,1634.468,856C1634.468,873.333,1634.468,890.667,1634.468,903.5C1634.468,916.333,1634.468,924.667,1634.468,937.5C1634.468,950.333,1634.468,967.667,1634.468,987C1634.468,1006.333,1634.468,1027.667,1634.468,1054.396C1634.468,1081.125,1634.468,1113.25,1634.468,1143.375C1634.468,1173.5,1634.468,1201.625,1634.468,1221.854C1634.468,1242.083,1634.468,1254.417,1629.368,1270.925C1624.267,1287.434,1614.065,1308.117,1608.965,1318.459L1603.864,1328.801" id="my-svg-L_JOIN_EVAL_0" class="edge-thickness-normal edge-pattern-solid edge-thickness-normal edge-pattern-solid flowchart-link" style=";" data-edge="true" data-et="edge" data-id="L_JOIN_EVAL_0" data-points="W3sieCI6Mzg3Ljg2NzE4NzUsInkiOjc1NH0seyJ4IjozODcuODY3MTg3NSwieSI6Nzc5fSx7IngiOjE2MzQuNDY4MjQ2NDU5OTYxLCJ5Ijo4MDR9LHsieCI6MTYzNC40NjgyNDY0NTk5NjEsInkiOjg1Nn0seyJ4IjoxNjM0LjQ2ODI0NjQ1OTk2MSwieSI6OTA4fSx7IngiOjE2MzQuNDY4MjQ2NDU5OTYxLCJ5Ijo5MzN9LHsieCI6MTYzNC40NjgyNDY0NTk5NjEsInkiOjk4NX0seyJ4IjoxNjM0LjQ2ODI0NjQ1OTk2MSwieSI6MTA0OX0seyJ4IjoxNjM0LjQ2ODI0NjQ1OTk2MSwieSI6MTE0NS4zNzV9LHsieCI6MTYzNC40NjgyNDY0NTk5NjEsInkiOjEyMjkuNzV9LHsieCI6MTYzNC40NjgyNDY0NTk5NjEsInkiOjEyNjYuNzV9LHsieCI6MTYwMi4wOTQ3NjA0MDM0MDcyLCJ5IjoxMzMyLjM4ODIzMjY5MzQ0NjN9XQ==" data-look="classic" marker-end="url(#my-svg_flowchart-v2-pointEnd)"/><path d="M1092.341,577L1073.967,583.167C1055.593,589.333,1018.845,601.667,1000.471,614C982.097,626.333,982.097,638.667,939.84,653.026C897.583,667.386,813.069,683.772,770.813,691.965L728.556,700.158" id="my-svg-L_RESOLVE_TERMINAL_0" class="edge-thickness-normal edge-pattern-solid edge-thickness-normal edge-pattern-solid flowchart-link" style=";" data-edge="true" data-et="edge" data-id="L_RESOLVE_TERMINAL_0" data-points="W3sieCI6MTA5Mi4zNDA2MjE5NDgyNDIyLCJ5Ijo1Nzd9LHsieCI6OTgyLjA5NzE1MjcwOTk2MDksInkiOjYxNH0seyJ4Ijo5ODIuMDk3MTUyNzA5OTYwOSwieSI6NjUxfSx7IngiOjcyNC42Mjg3MDQ2NjEyMTk3LCJ5Ijo3MDAuOTE5ODQ2NDUyNjYwNn1d" data-look="classic" marker-end="url(#my-svg_flowchart-v2-pointEnd)"/><path d="M1438.873,1012L1452.591,1018.167C1466.309,1024.333,1493.746,1036.667,1579.194,1055.952C1664.642,1075.237,1808.102,1101.474,1879.831,1114.593L1951.561,1127.711" id="my-svg-L_FN_ASYNC_0" class="edge-thickness-normal edge-pattern-solid edge-thickness-normal edge-pattern-solid flowchart-link" style=";" data-edge="true" data-et="edge" data-id="L_FN_ASYNC_0" data-points="W3sieCI6MTQzOC44NzI1NDMzMzQ5NjEsInkiOjEwMTJ9LHsieCI6MTUyMS4xODMwOTAyMDk5NjEsInkiOjEwNDl9LHsieCI6MTk1NS40OTU1OTAyMDk5NjEsInkiOjExMjguNDMwNjgzMDE0MzM2NH1d" data-look="classic" marker-end="url(#my-svg_flowchart-v2-pointEnd)"/><path d="M1955.496,1168.998L1915.785,1179.124C1876.075,1189.249,1796.654,1209.499,1756.944,1225.791C1717.234,1242.083,1717.234,1254.417,1701.544,1274.083C1685.854,1293.749,1654.474,1320.747,1638.784,1334.247L1623.094,1347.746" id="my-svg-L_ASYNC_EVAL_0" class="edge-thickness-normal edge-pattern-solid edge-thickness-normal edge-pattern-solid flowchart-link" style=";" data-edge="true" data-et="edge" data-id="L_ASYNC_EVAL_0" data-points="W3sieCI6MTk1NS40OTU1OTAyMDk5NjEsInkiOjExNjguOTk4MzY2NTQzNTA1N30seyJ4IjoxNzE3LjIzMzg3MTQ1OTk2MSwieSI6MTIyOS43NX0seyJ4IjoxNzE3LjIzMzg3MTQ1OTk2MSwieSI6MTI2Ni43NX0seyJ4IjoxNjIwLjA2MTU5NDExMTkzMjcsInkiOjEzNTAuMzU1MDY2NDAxOTcxN31d" data-look="classic" marker-end="url(#my-svg_flowchart-v2-pointEnd)"/></g><g class="edgeLabels"><g class="edgeLabel"><g class="label" data-id="L_TRIGGER_LOAD_0" transform="translate(0, 0)"><foreignObject width="0" height="0"><div xmlns="http://www.w3.org/1999/xhtml" class="labelBkg" style="display: table-cell; white-space: nowrap; line-height: 1.5; max-width: 200px; text-align: center;"><span class="edgeLabel"></span></div></foreignObject></g></g><g class="edgeLabel"><g class="label" data-id="L_LOAD_SPAWN_0" transform="translate(0, 0)"><foreignObject width="0" height="0"><div xmlns="http://www.w3.org/1999/xhtml" class="labelBkg" style="display: table-cell; white-space: nowrap; line-height: 1.5; max-width: 200px; text-align: center;"><span class="edgeLabel"></span></div></foreignObject></g></g><g class="edgeLabel"><g class="label" data-id="L_SPAWN_JOURNAL_0" transform="translate(0, 0)"><foreignObject width="0" height="0"><div xmlns="http://www.w3.org/1999/xhtml" class="labelBkg" style="display: table-cell; white-space: nowrap; line-height: 1.5; max-width: 200px; text-align: center;"><span class="edgeLabel"></span></div></foreignObject></g></g><g class="edgeLabel"><g class="label" data-id="L_JOURNAL_RESOLVE_0" transform="translate(0, 0)"><foreignObject width="0" height="0"><div xmlns="http://www.w3.org/1999/xhtml" class="labelBkg" style="display: table-cell; white-space: nowrap; line-height: 1.5; max-width: 200px; text-align: center;"><span class="edgeLabel"></span></div></foreignObject></g></g><g class="edgeLabel"><g class="label" data-id="L_RESOLVE_SPAWN_ACTOR_0" transform="translate(0, 0)"><foreignObject width="0" height="0"><div xmlns="http://www.w3.org/1999/xhtml" class="labelBkg" style="display: table-cell; white-space: nowrap; line-height: 1.5; max-width: 200px; text-align: center;"><span class="edgeLabel"></span></div></foreignObject></g></g><g class="edgeLabel"><g class="label" data-id="L_SPAWN_ACTOR_FN_0" transform="translate(0, 0)"><foreignObject width="0" height="0"><div xmlns="http://www.w3.org/1999/xhtml" class="labelBkg" style="display: table-cell; white-space: nowrap; line-height: 1.5; max-width: 200px; text-align: center;"><span class="edgeLabel"></span></div></foreignObject></g></g><g class="edgeLabel"><g class="label" data-id="L_FN_RETRY_0" transform="translate(0, 0)"><foreignObject width="0" height="0"><div xmlns="http://www.w3.org/1999/xhtml" class="labelBkg" style="display: table-cell; white-space: nowrap; line-height: 1.5; max-width: 200px; text-align: center;"><span class="edgeLabel"></span></div></foreignObject></g></g><g class="edgeLabel" transform="translate(1376.999496459961, 1049)"><g class="label" data-id="L_RETRY_FN_0" transform="translate(-38.8984375, -12)"><foreignObject width="77.796875" height="24"><div xmlns="http://www.w3.org/1999/xhtml" class="labelBkg" style="display: table-cell; white-space: nowrap; line-height: 1.5; max-width: 200px; text-align: center;"><span class="edgeLabel"><p>retries left</p></span></div></foreignObject></g></g><g class="edgeLabel"><g class="label" data-id="L_FN_TIMEOUT_0" transform="translate(0, 0)"><foreignObject width="0" height="0"><div xmlns="http://www.w3.org/1999/xhtml" class="labelBkg" style="display: table-cell; white-space: nowrap; line-height: 1.5; max-width: 200px; text-align: center;"><span class="edgeLabel"></span></div></foreignObject></g></g><g class="edgeLabel" transform="translate(1169.089340209961, 1390.453125)"><g class="label" data-id="L_TIMEOUT_ERROR_0" transform="translate(-34.3359375, -12)"><foreignObject width="68.671875" height="24"><div xmlns="http://www.w3.org/1999/xhtml" class="labelBkg" style="display: table-cell; white-space: nowrap; line-height: 1.5; max-width: 200px; text-align: center;"><span class="edgeLabel"><p>exceeded</p></span></div></foreignObject></g></g><g class="edgeLabel" transform="translate(1327.323715209961, 1390.453125)"><g class="label" data-id="L_RETRY_ERROR_0" transform="translate(-36.546875, -12)"><foreignObject width="73.09375" height="24"><div xmlns="http://www.w3.org/1999/xhtml" class="labelBkg" style="display: table-cell; white-space: nowrap; line-height: 1.5; max-width: 200px; text-align: center;"><span class="edgeLabel"><p>exhausted</p></span></div></foreignObject></g></g><g class="edgeLabel" transform="translate(1461.565902709961, 1145.375)"><g class="label" data-id="L_FN_EVAL_0" transform="translate(-26.375, -12)"><foreignObject width="52.75" height="24"><div xmlns="http://www.w3.org/1999/xhtml" class="labelBkg" style="display: table-cell; white-space: nowrap; line-height: 1.5; max-width: 200px; text-align: center;"><span class="edgeLabel"><p>success</p></span></div></foreignObject></g></g><g class="edgeLabel"><g class="label" data-id="L_EVAL_COND_0" transform="translate(0, 0)"><foreignObject width="0" height="0"><div xmlns="http://www.w3.org/1999/xhtml" class="labelBkg" style="display: table-cell; white-space: nowrap; line-height: 1.5; max-width: 200px; text-align: center;"><span class="edgeLabel"></span></div></foreignObject></g></g><g class="edgeLabel"><g class="label" data-id="L_EVAL_DEFAULT_0" transform="translate(0, 0)"><foreignObject width="0" height="0"><div xmlns="http://www.w3.org/1999/xhtml" class="labelBkg" style="display: table-cell; white-space: nowrap; line-height: 1.5; max-width: 200px; text-align: center;"><span class="edgeLabel"></span></div></foreignObject></g></g><g class="edgeLabel"><g class="label" data-id="L_EVAL_ERROR_0" transform="translate(0, 0)"><foreignObject width="0" height="0"><div xmlns="http://www.w3.org/1999/xhtml" class="labelBkg" style="display: table-cell; white-space: nowrap; line-height: 1.5; max-width: 200px; text-align: center;"><span class="edgeLabel"></span></div></foreignObject></g></g><g class="edgeLabel"><g class="label" data-id="L_COND_RESOLVE_0" transform="translate(0, 0)"><foreignObject width="0" height="0"><div xmlns="http://www.w3.org/1999/xhtml" class="labelBkg" style="display: table-cell; white-space: nowrap; line-height: 1.5; max-width: 200px; text-align: center;"><span class="edgeLabel"></span></div></foreignObject></g></g><g class="edgeLabel"><g class="label" data-id="L_DEFAULT_RESOLVE_0" transform="translate(0, 0)"><foreignObject width="0" height="0"><div xmlns="http://www.w3.org/1999/xhtml" class="labelBkg" style="display: table-cell; white-space: nowrap; line-height: 1.5; max-width: 200px; text-align: center;"><span class="edgeLabel"></span></div></foreignObject></g></g><g class="edgeLabel"><g class="label" data-id="L_ERROR_RESOLVE_0" transform="translate(0, 0)"><foreignObject width="0" height="0"><div xmlns="http://www.w3.org/1999/xhtml" class="labelBkg" style="display: table-cell; white-space: nowrap; line-height: 1.5; max-width: 200px; text-align: center;"><span class="edgeLabel"></span></div></foreignObject></g></g><g class="edgeLabel" transform="translate(847.5815277099609, 614)"><g class="label" data-id="L_RESOLVE_FORK_0" transform="translate(-61.8984375, -12)"><foreignObject width="123.796875" height="24"><div xmlns="http://www.w3.org/1999/xhtml" class="labelBkg" style="display: table-cell; white-space: nowrap; line-height: 1.5; max-width: 200px; text-align: center;"><span class="edgeLabel"><p>parallel branches</p></span></div></foreignObject></g></g><g class="edgeLabel"><g class="label" data-id="L_FORK_SPAWN_ACTOR_0" transform="translate(0, 0)"><foreignObject width="0" height="0"><div xmlns="http://www.w3.org/1999/xhtml" class="labelBkg" style="display: table-cell; white-space: nowrap; line-height: 1.5; max-width: 200px; text-align: center;"><span class="edgeLabel"></span></div></foreignObject></g></g><g class="edgeLabel"><g class="label" data-id="L_JOIN_EVAL_0" transform="translate(0, 0)"><foreignObject width="0" height="0"><div xmlns="http://www.w3.org/1999/xhtml" class="labelBkg" style="display: table-cell; white-space: nowrap; line-height: 1.5; max-width: 200px; text-align: center;"><span class="edgeLabel"></span></div></foreignObject></g></g><g class="edgeLabel" transform="translate(982.0971527099609, 614)"><g class="label" data-id="L_RESOLVE_TERMINAL_0" transform="translate(-52.6171875, -12)"><foreignObject width="105.234375" height="24"><div xmlns="http://www.w3.org/1999/xhtml" class="labelBkg" style="display: table-cell; white-space: nowrap; line-height: 1.5; max-width: 200px; text-align: center;"><span class="edgeLabel"><p>no more nodes</p></span></div></foreignObject></g></g><g class="edgeLabel" transform="translate(1693.95342, 1080.59767)"><g class="label" data-id="L_FN_ASYNC_0" transform="translate(-39.6171875, -12)"><foreignObject width="79.234375" height="24"><div xmlns="http://www.w3.org/1999/xhtml" class="labelBkg" style="display: table-cell; white-space: nowrap; line-height: 1.5; max-width: 200px; text-align: center;"><span class="edgeLabel"><p>async node</p></span></div></foreignObject></g></g><g class="edgeLabel" transform="translate(1717.233871459961, 1266.75)"><g class="label" data-id="L_ASYNC_EVAL_0" transform="translate(-62.765625, -12)"><foreignObject width="125.53125" height="24"><div xmlns="http://www.w3.org/1999/xhtml" class="labelBkg" style="display: table-cell; white-space: nowrap; line-height: 1.5; max-width: 200px; text-align: center;"><span class="edgeLabel"><p>callback received</p></span></div></foreignObject></g></g></g><g class="nodes"><g class="node default" id="my-svg-flowchart-TRIGGER-0" data-look="classic" transform="translate(1172.788558959961, 47)"><rect class="basic label-container" style="" x="-130" y="-39" width="260" height="78"/><g class="label" style="" transform="translate(-100, -24)"><rect/><foreignObject width="200" height="48"><div xmlns="http://www.w3.org/1999/xhtml" style="display: table; white-space: break-spaces; line-height: 1.5; max-width: 200px; text-align: center; width: 200px;"><span class="nodeLabel"><p>POST /v1/workflows/trigger</p></span></div></foreignObject></g></g><g class="node default" id="my-svg-flowchart-LOAD-1" data-look="classic" transform="translate(1172.788558959961, 188)"><rect class="basic label-container" style="" x="-100.765625" y="-27" width="201.53125" height="54"/><g class="label" style="" transform="translate(-70.765625, -12)"><rect/><foreignObject width="141.53125" height="24"><div xmlns="http://www.w3.org/1999/xhtml" style="display: table-cell; white-space: nowrap; line-height: 1.5; max-width: 200px; text-align: center;"><span class="nodeLabel"><p>Load Graph Schema</p></span></div></foreignObject></g></g><g class="node default" id="my-svg-flowchart-SPAWN-2" data-look="classic" transform="translate(1172.788558959961, 292)"><rect class="basic label-container" style="" x="-124.546875" y="-27" width="249.09375" height="54"/><g class="label" style="" transform="translate(-94.546875, -12)"><rect/><foreignObject width="189.09375" height="24"><div xmlns="http://www.w3.org/1999/xhtml" style="display: table-cell; white-space: nowrap; line-height: 1.5; max-width: 200px; text-align: center;"><span class="nodeLabel"><p>Spawn Instance Supervisor</p></span></div></foreignObject></g></g><g class="node default" id="my-svg-flowchart-JOURNAL-3" data-look="classic" transform="translate(1172.788558959961, 396)"><rect class="basic label-container" style="" x="-104.21875" y="-27" width="208.4375" height="54"/><g class="label" style="" transform="translate(-74.21875, -12)"><rect/><foreignObject width="148.4375" height="24"><div xmlns="http://www.w3.org/1999/xhtml" style="display: table-cell; white-space: nowrap; line-height: 1.5; max-width: 200px; text-align: center;"><span class="nodeLabel"><p>Create Journal Entry</p></span></div></foreignObject></g></g><g class="node default" id="my-svg-flowchart-RESOLVE-4" data-look="classic" transform="translate(1172.788558959961, 550)"><rect class="basic label-container" style="" x="-105.671875" y="-27" width="211.34375" height="54"/><g class="label" style="" transform="translate(-75.671875, -12)"><rect/><foreignObject width="151.34375" height="24"><div xmlns="http://www.w3.org/1999/xhtml" style="display: table-cell; white-space: nowrap; line-height: 1.5; max-width: 200px; text-align: center;"><span class="nodeLabel"><p>Resolve Next Node(s)</p></span></div></foreignObject></g></g><g class="node default" id="my-svg-flowchart-SPAWN_ACTOR-5" data-look="classic" transform="translate(1378.808090209961, 856)"><rect class="basic label-container" style="" x="-94.6875" y="-27" width="189.375" height="54"/><g class="label" style="" transform="translate(-64.6875, -12)"><rect/><foreignObject width="129.375" height="24"><div xmlns="http://www.w3.org/1999/xhtml" style="display: table-cell; white-space: nowrap; line-height: 1.5; max-width: 200px; text-align: center;"><span class="nodeLabel"><p>Spawn Node Actor</p></span></div></foreignObject></g></g><g class="node default" id="my-svg-flowchart-FN-6" data-look="classic" transform="translate(1378.808090209961, 985)"><rect class="basic label-container" style="" x="-91.953125" y="-27" width="183.90625" height="54"/><g class="label" style="" transform="translate(-61.953125, -12)"><rect/><foreignObject width="123.90625" height="24"><div xmlns="http://www.w3.org/1999/xhtml" style="display: table-cell; white-space: nowrap; line-height: 1.5; max-width: 200px; text-align: center;"><span class="nodeLabel"><p>Execute Function</p></span></div></foreignObject></g></g><g class="node default" id="my-svg-flowchart-RETRY-7" data-look="classic" transform="translate(1327.323715209961, 1145.375)"><polygon points="48.859375,0 97.71875,-48.859375 48.859375,-97.71875 0,-48.859375" class="label-container" transform="translate(-48.359375, 48.859375)"/><g class="label" style="" transform="translate(-21.859375, -12)"><rect/><foreignObject width="43.71875" height="24"><div xmlns="http://www.w3.org/1999/xhtml" style="display: table-cell; white-space: nowrap; line-height: 1.5; max-width: 200px; text-align: center;"><span class="nodeLabel"><p>Retry?</p></span></div></foreignObject></g></g><g class="node default" id="my-svg-flowchart-TIMEOUT-8" data-look="classic" transform="translate(1169.089340209961, 1145.375)"><polygon points="59.375,0 118.75,-59.375 59.375,-118.75 0,-59.375" class="label-container" transform="translate(-58.875, 59.375)"/><g class="label" style="" transform="translate(-32.375, -12)"><rect/><foreignObject width="64.75" height="24"><div xmlns="http://www.w3.org/1999/xhtml" style="display: table-cell; white-space: nowrap; line-height: 1.5; max-width: 200px; text-align: center;"><span class="nodeLabel"><p>Timeout?</p></span></div></foreignObject></g></g><g class="node default" id="my-svg-flowchart-EVAL-9" data-look="classic" transform="translate(1573.456527709961, 1390.453125)"><polygon points="86.703125,0 173.40625,-86.703125 86.703125,-173.40625 0,-86.703125" class="label-container" transform="translate(-86.203125, 86.703125)"/><g class="label" style="" transform="translate(-47.703125, -24)"><rect/><foreignObject width="95.40625" height="48"><div xmlns="http://www.w3.org/1999/xhtml" style="display: table-cell; white-space: nowrap; line-height: 1.5; max-width: 200px; text-align: center;"><span class="nodeLabel"><p>Evaluate<br />Output Edges</p></span></div></foreignObject></g></g><g class="node default" id="my-svg-flowchart-COND-10" data-look="classic" transform="translate(1011.4760589599609, 1616.15625)"><rect class="basic label-container" style="" x="-70.8671875" y="-39" width="141.734375" height="78"/><g class="label" style="" transform="translate(-40.8671875, -24)"><rect/><foreignObject width="81.734375" height="48"><div xmlns="http://www.w3.org/1999/xhtml" style="display: table-cell; white-space: nowrap; line-height: 1.5; max-width: 200px; text-align: center;"><span class="nodeLabel"><p>Conditional<br /><i>expr-lang</i></p></span></div></foreignObject></g></g><g class="node default" id="my-svg-flowchart-ERROR-11" data-look="classic" transform="translate(1531.401840209961, 1616.15625)"><rect class="basic label-container" style="" x="-79.984375" y="-39" width="159.96875" height="78"/><g class="label" style="" transform="translate(-49.984375, -24)"><rect/><foreignObject width="99.96875" height="48"><div xmlns="http://www.w3.org/1999/xhtml" style="display: table-cell; white-space: nowrap; line-height: 1.5; max-width: 200px; text-align: center;"><span class="nodeLabel"><p>Error Edge<br /><i>recovery path</i></p></span></div></foreignObject></g></g><g class="node default" id="my-svg-flowchart-DEFAULT-12" data-look="classic" transform="translate(1890.495590209961, 1616.15625)"><rect class="basic label-container" style="" x="-75.8671875" y="-39" width="151.734375" height="78"/><g class="label" style="" transform="translate(-45.8671875, -24)"><rect/><foreignObject width="91.734375" height="48"><div xmlns="http://www.w3.org/1999/xhtml" style="display: table-cell; white-space: nowrap; line-height: 1.5; max-width: 200px; text-align: center;"><span class="nodeLabel"><p>Default Edge<br /><i>next node</i></p></span></div></foreignObject></g></g><g class="node default" id="my-svg-flowchart-FORK-13" data-look="classic" transform="translate(136.6875, 715)"><rect class="basic label-container" style="" x="-93.6875" y="-39" width="187.375" height="78"/><g class="label" style="" transform="translate(-63.6875, -24)"><rect/><foreignObject width="127.375" height="48"><div xmlns="http://www.w3.org/1999/xhtml" style="display: table-cell; white-space: nowrap; line-height: 1.5; max-width: 200px; text-align: center;"><span class="nodeLabel"><p>Fan-out<br /><i>concurrent actors</i></p></span></div></foreignObject></g></g><g class="node default" id="my-svg-flowchart-JOIN-14" data-look="classic" transform="translate(387.8671875, 715)"><rect class="basic label-container" style="" x="-107.4921875" y="-39" width="214.984375" height="78"/><g class="label" style="" transform="translate(-77.4921875, -24)"><rect/><foreignObject width="154.984375" height="48"><div xmlns="http://www.w3.org/1999/xhtml" style="display: table-cell; white-space: nowrap; line-height: 1.5; max-width: 200px; text-align: center;"><span class="nodeLabel"><p>Join / Merge<br /><i>configurable strategy</i></p></span></div></foreignObject></g></g><g class="node default" id="my-svg-flowchart-TERMINAL-15" data-look="classic" transform="translate(648.0212326049805, 715)"><g class="basic label-container outer-path"><path d="M-63.171875 -19.5 C-24.301979972643274 -19.5, 14.567915054713453 -19.5, 63.171875 -19.5 C63.171875 -19.5, 63.171875 -19.5, 63.171875 -19.5 C63.46626812330447 -19.49055938553708, 63.76066124660893 -19.481118771074158, 64.4212442896239 -19.45993515863156 C64.71684280546772 -19.431419125317333, 65.01244132131154 -19.402903092003108, 65.66547965284786 -19.3399052695533 C66.12592205332456 -19.265464513028373, 66.58636445380124 -19.191023756503448, 66.89946825967675 -19.140403561325776 C67.21342612705574 -19.068744726863073, 67.52738399443474 -18.99708589240037, 68.11813938623538 -18.862249829261074 C68.50719647088283 -18.746779728740023, 68.8962535555303 -18.63130962821897, 69.3164852514606 -18.50658706670804 C69.69399661636437 -18.367659394746653, 70.07150798126813 -18.228731722785266, 70.4895815951478 -18.074876768247425 C70.9454954699772 -17.87305722006503, 71.40140934480661 -17.671237671882633, 71.63260791279238 -17.568892924097174 C71.95730812344628 -17.39949703217945, 72.28200833410017 -17.230101140261723, 72.74086726407678 -16.990714730406097 C73.13902711026942 -16.749347891797147, 73.53718695646205 -16.507981053188196, 73.8098055736057 -16.342718045390892 C74.1787014531073 -16.085392249095825, 74.54759733260889 -15.828066452800762, 74.83503034457871 -15.627565626425154 C75.09127995561121 -15.423213380715266, 75.34752956664371 -15.218861135005378, 75.81232870850187 -14.848196188198123 C76.04357348077879 -14.638185804417617, 76.27481825305573 -14.428175420637109, 76.73768473676799 -14.007812326905688 C77.08305280028456 -13.651191446079475, 77.42842086380114 -13.294570565253261, 77.60729594296865 -13.10986736009568 C77.92035802300194 -12.742126827151578, 78.23342010303523 -12.374386294207474, 78.41758890812658 -12.158051136245305 C78.66554782122432 -11.825808782216011, 78.91350673432208 -11.49356642818672, 79.16523396464063 -11.156274872382312 C79.31839508562571 -10.920978261029587, 79.47155620661077 -10.685681649676862, 79.84715887860425 -10.108655082055241 C80.00394347891071 -9.83026814804877, 80.1607280792172 -9.551881214042298, 80.4605614742735 -9.019496659696287 C80.58265417657078 -8.765968551010637, 80.70474687886808 -8.512440442324987, 81.00292114880834 -7.893275190886684 C81.14734451532405 -7.536546683357051, 81.29176788183976 -7.179818175827419, 81.47200922997033 -6.734618561215508 C81.60461447464141 -6.335232692042752, 81.73721971931249 -5.935846822869997, 81.86589813421489 -5.548287939305138 C81.95695626020785 -5.2010438400525345, 82.0480143862008 -4.853799740799932, 82.18296928754556 -4.339158212148133 C82.25634111559381 -3.962409382261667, 82.32971294364208 -3.5856605523752, 82.42191977658177 -3.1121979531509023 C82.46942065453796 -2.7437905238320837, 82.51692153249414 -2.375383094513265, 82.58176770250937 -1.872449005199798 C82.60844581626716 -1.4569158492363923, 82.63512393002495 -1.0413826932729866, 82.66185621591342 -0.6250057626472757 C82.66185621591342 -0.2246607119060729, 82.66185621591342 0.1756843388351299, 82.66185621591342 0.625005762647271 C82.64017622583007 0.9626891079682841, 82.61849623574673 1.300372453289297, 82.58176770250937 1.8724490051997846 C82.53839869267324 2.20881048130916, 82.4950296828371 2.5451719574185345, 82.42191977658177 3.1121979531508885 C82.35204797307398 3.470974896752531, 82.28217616956618 3.8297518403541737, 82.18296928754556 4.339158212148129 C82.0749892116966 4.750933040221092, 81.96700913584766 5.162707868294055, 81.86589813421489 5.548287939305125 C81.74678647361672 5.907033283160941, 81.62767481301854 6.265778627016758, 81.47200922997033 6.734618561215495 C81.37010801293857 6.986316537409941, 81.2682067959068 7.238014513604386, 81.00292114880834 7.893275190886679 C80.81909816061159 8.27498755905911, 80.63527517241484 8.65669992723154, 80.4605614742735 9.019496659696284 C80.22253012885419 9.442145416775675, 79.98449878343487 9.864794173855067, 79.84715887860425 10.108655082055236 C79.6051359108009 10.480467352867812, 79.36311294299756 10.852279623680388, 79.16523396464065 11.156274872382301 C78.98683065035576 11.395319060647779, 78.80842733607085 11.634363248913258, 78.41758890812659 12.158051136245302 C78.21400950037315 12.397187092588945, 78.01043009261973 12.636323048932589, 77.60729594296866 13.10986736009567 C77.30835277290781 13.418550726874209, 77.00940960284696 13.727234093652747, 76.73768473676799 14.007812326905684 C76.45858660465082 14.261281865962578, 76.17948847253366 14.514751405019473, 75.8123287085019 14.848196188198111 C75.44544854044209 15.140773359134505, 75.07856837238229 15.433350530070898, 74.83503034457871 15.627565626425152 C74.59785925166376 15.79300591387148, 74.36068815874881 15.958446201317809, 73.8098055736057 16.34271804539089 C73.42287838657633 16.57727558000464, 73.03595119954696 16.811833114618388, 72.74086726407678 16.990714730406093 C72.46260826033388 17.135882274425366, 72.18434925659098 17.28104981844464, 71.63260791279238 17.56889292409717 C71.1996253885611 17.76056144360412, 70.76664286432982 17.952229963111076, 70.4895815951478 18.07487676824742 C70.20353882367594 18.18014315229946, 69.91749605220407 18.2854095363515, 69.31648525146062 18.506587066708033 C68.85736606707871 18.642851230666803, 68.39824688269682 18.779115394625578, 68.11813938623541 18.86224982926107 C67.67649459821082 18.963052370126103, 67.23484981018623 19.063854910991136, 66.89946825967677 19.140403561325773 C66.5576634538406 19.195663911597507, 66.21585864800443 19.25092426186924, 65.66547965284788 19.3399052695533 C65.22414038016909 19.38248073840049, 64.7828011074903 19.42505620724768, 64.4212442896239 19.45993515863156 C64.08474269243175 19.470726109892887, 63.74824109523961 19.481517061154214, 63.17187500000001 19.5 C63.17187500000001 19.5, 63.171875 19.5, 63.171875 19.5 C31.839286531950343 19.5, 0.5066980639006857 19.5, -63.17187499999999 19.5 C-63.59022730742061 19.48658425577439, -64.00857961484124 19.473168511548778, -64.4212442896239 19.45993515863156 C-64.86224267572543 19.4173925747025, -65.30324106182695 19.37484999077344, -65.66547965284786 19.3399052695533 C-66.15444227309145 19.260853585074067, -66.64340489333503 19.181801900594838, -66.89946825967675 19.140403561325773 C-67.28405324883114 19.052624547202875, -67.66863823798555 18.96484553307998, -68.11813938623538 18.862249829261074 C-68.46507172994042 18.759282130734455, -68.81200407364544 18.65631443220784, -69.31648525146059 18.506587066708043 C-69.71878045009413 18.358538714834854, -70.12107564872765 18.21049036296166, -70.4895815951478 18.074876768247425 C-70.84875666618179 17.915880618850604, -71.20793173721577 17.75688446945378, -71.63260791279238 17.568892924097174 C-71.86375982751305 17.448301118247265, -72.09491174223373 17.32770931239736, -72.74086726407678 16.990714730406097 C-73.10721088848041 16.768635072418512, -73.47355451288405 16.54655541443093, -73.80980557360569 16.3427180453909 C-74.17874817052505 16.085359661047562, -74.54769076744441 15.828001276704224, -74.83503034457871 15.627565626425156 C-75.13603540973224 15.3875220970464, -75.43704047488578 15.147478567667642, -75.81232870850187 14.848196188198125 C-76.02960516282563 14.650871461201241, -76.24688161714938 14.453546734204359, -76.73768473676797 14.007812326905697 C-77.00212038635809 13.734760808133318, -77.26655603594818 13.46170928936094, -77.60729594296865 13.109867360095677 C-77.87175882369596 12.79921421202917, -78.13622170442326 12.488561063962663, -78.41758890812658 12.158051136245307 C-78.69021238144288 11.792760518510812, -78.96283585475919 11.427469900776318, -79.16523396464063 11.156274872382316 C-79.38353704287469 10.820902721630354, -79.60184012110876 10.485530570878392, -79.84715887860425 10.108655082055249 C-80.0068382755158 9.825128143546513, -80.16651767242735 9.541601205037779, -80.4605614742735 9.019496659696289 C-80.60917398329272 8.710899604919579, -80.75778649231194 8.402302550142867, -81.00292114880834 7.893275190886686 C-81.11582936126582 7.614389723184925, -81.22873757372331 7.335504255483165, -81.47200922997033 6.73461856121551 C-81.55890916146231 6.472889813185478, -81.64580909295428 6.211161065155447, -81.86589813421489 5.5482879393051325 C-81.96903233480734 5.154992533800852, -82.07216653539977 4.761697128296571, -82.18296928754556 4.339158212148136 C-82.23083681096061 4.0933685962164885, -82.27870433437566 3.847578980284842, -82.42191977658177 3.112197953150904 C-82.47972115677894 2.663901862515224, -82.53752253697611 2.2156057718795443, -82.58176770250937 1.872449005199809 C-82.61003186253534 1.4322118983761063, -82.63829602256129 0.9919747915524036, -82.66185621591342 0.6250057626472781 C-82.66185621591342 0.24346518899370795, -82.66185621591342 -0.13807538465986224, -82.66185621591342 -0.6250057626472687 C-82.6397940717007 -0.9686414670025854, -82.61773192748798 -1.312277171357902, -82.58176770250937 -1.8724490051997822 C-82.52164770388032 -2.338727842530098, -82.46152770525127 -2.805006679860414, -82.42191977658177 -3.112197953150895 C-82.33576332547888 -3.554593120391863, -82.24960687437598 -3.9969882876328304, -82.18296928754556 -4.339158212148126 C-82.10845596107852 -4.623309820246907, -82.03394263461149 -4.9074614283456865, -81.86589813421489 -5.548287939305123 C-81.76367341586604 -5.856172503674838, -81.66144869751719 -6.164057068044554, -81.47200922997033 -6.734618561215485 C-81.30054273250954 -7.158144125022823, -81.12907623504876 -7.581669688830162, -81.00292114880834 -7.893275190886676 C-80.82690390265333 -8.258778768693304, -80.65088665649832 -8.624282346499934, -80.4605614742735 -9.019496659696282 C-80.2957821290847 -9.31207907279703, -80.13100278389591 -9.604661485897779, -79.84715887860425 -10.108655082055243 C-79.62501927808592 -10.449921161286325, -79.40287967756758 -10.791187240517406, -79.16523396464063 -11.156274872382308 C-79.00551851131611 -11.370279029460038, -78.8458030579916 -11.584283186537768, -78.41758890812659 -12.158051136245302 C-78.24880088624516 -12.356319151057752, -78.08001286436372 -12.5545871658702, -77.60729594296866 -13.10986736009567 C-77.3646133440054 -13.36045706813715, -77.12193074504215 -13.611046776178629, -76.73768473676799 -14.007812326905677 C-76.55137341566962 -14.177015339199793, -76.36506209457124 -14.34621835149391, -75.8123287085019 -14.848196188198107 C-75.45936698010316 -15.129673773890039, -75.10640525170442 -15.41115135958197, -74.83503034457871 -15.627565626425149 C-74.47000031497504 -15.882194773181377, -74.10497028537137 -16.136823919937605, -73.80980557360571 -16.342718045390885 C-73.53837378765462 -16.50726158914467, -73.26694200170351 -16.671805132898456, -72.74086726407678 -16.99071473040609 C-72.44662544614519 -17.144220498350126, -72.1523836282136 -17.297726266294163, -71.6326079127924 -17.56889292409717 C-71.32079410886078 -17.706923645469843, -71.00898030492917 -17.844954366842515, -70.48958159514781 -18.07487676824742 C-70.06427104795198 -18.231394981143087, -69.63896050075616 -18.387913194038752, -69.31648525146062 -18.506587066708033 C-68.96117483587629 -18.61204133299103, -68.60586442029198 -18.717495599274027, -68.11813938623541 -18.862249829261067 C-67.79782645198978 -18.935359166265396, -67.47751351774414 -19.00846850326972, -66.89946825967677 -19.140403561325773 C-66.57435622114782 -19.19296515443362, -66.24924418261887 -19.245526747541465, -65.66547965284788 -19.3399052695533 C-65.32905784309227 -19.372359476934, -64.99263603333667 -19.404813684314703, -64.4212442896239 -19.45993515863156 C-64.14507504199611 -19.468791368872154, -63.8689057943683 -19.477647579112745, -63.17187500000001 -19.5 C-63.17187500000001 -19.5, -63.17187500000001 -19.5, -63.171875 -19.5" stroke="none" stroke-width="0" fill="#1a1a2e" style=""/><path d="M-63.171875 -19.5 C-20.936253527725967 -19.5, 21.299367944548067 -19.5, 63.171875 -19.5 M-63.171875 -19.5 C-16.670347088459053 -19.5, 29.831180823081894 -19.5, 63.171875 -19.5 M63.171875 -19.5 C63.171875 -19.5, 63.171875 -19.5, 63.171875 -19.5 M63.171875 -19.5 C63.171875 -19.5, 63.171875 -19.5, 63.171875 -19.5 M63.171875 -19.5 C63.494883940777406 -19.48964173196803, 63.81789288155481 -19.479283463936063, 64.4212442896239 -19.45993515863156 M63.171875 -19.5 C63.50767925718701 -19.489231411075348, 63.843483514374014 -19.478462822150696, 64.4212442896239 -19.45993515863156 M64.4212442896239 -19.45993515863156 C64.84903549762117 -19.418666655290263, 65.27682670561845 -19.377398151948967, 65.66547965284786 -19.3399052695533 M64.4212442896239 -19.45993515863156 C64.90248822005962 -19.41351013544293, 65.38373215049535 -19.367085112254298, 65.66547965284786 -19.3399052695533 M65.66547965284786 -19.3399052695533 C66.10335315342549 -19.26911327773962, 66.54122665400313 -19.198321285925942, 66.89946825967675 -19.140403561325776 M65.66547965284786 -19.3399052695533 C65.94068419636214 -19.29541233320102, 66.2158887398764 -19.250919396848744, 66.89946825967675 -19.140403561325776 M66.89946825967675 -19.140403561325776 C67.38062973794804 -19.030581593782436, 67.86179121621933 -18.920759626239096, 68.11813938623538 -18.862249829261074 M66.89946825967675 -19.140403561325776 C67.35539685536928 -19.036340834571092, 67.81132545106179 -18.93227810781641, 68.11813938623538 -18.862249829261074 M68.11813938623538 -18.862249829261074 C68.45808695503015 -18.76135517526399, 68.79803452382491 -18.66046052126691, 69.3164852514606 -18.50658706670804 M68.11813938623538 -18.862249829261074 C68.56037983266174 -18.730995186129206, 69.00262027908809 -18.599740542997342, 69.3164852514606 -18.50658706670804 M69.3164852514606 -18.50658706670804 C69.74973013171532 -18.347148945902532, 70.18297501197003 -18.187710825097028, 70.4895815951478 -18.074876768247425 M69.3164852514606 -18.50658706670804 C69.62251493904334 -18.393965312770174, 69.92854462662608 -18.281343558832305, 70.4895815951478 -18.074876768247425 M70.4895815951478 -18.074876768247425 C70.83071095522561 -17.923868919783907, 71.17184031530341 -17.77286107132039, 71.63260791279238 -17.568892924097174 M70.4895815951478 -18.074876768247425 C70.91223342269873 -17.88778134171163, 71.33488525024967 -17.700685915175836, 71.63260791279238 -17.568892924097174 M71.63260791279238 -17.568892924097174 C71.99513374533204 -17.379763429470113, 72.3576595778717 -17.19063393484305, 72.74086726407678 -16.990714730406097 M71.63260791279238 -17.568892924097174 C71.98453208232515 -17.38529431027012, 72.33645625185791 -17.201695696443064, 72.74086726407678 -16.990714730406097 M72.74086726407678 -16.990714730406097 C73.13140226299068 -16.753970119026093, 73.52193726190458 -16.51722550764609, 73.8098055736057 -16.342718045390892 M72.74086726407678 -16.990714730406097 C73.02223000622712 -16.820150982643554, 73.30359274837747 -16.649587234881015, 73.8098055736057 -16.342718045390892 M73.8098055736057 -16.342718045390892 C74.16097826242608 -16.09775517969048, 74.51215095124647 -15.852792313990067, 74.83503034457871 -15.627565626425154 M73.8098055736057 -16.342718045390892 C74.1203883515965 -16.12606894437627, 74.4309711295873 -15.909419843361654, 74.83503034457871 -15.627565626425154 M74.83503034457871 -15.627565626425154 C75.12913254384338 -15.393026948899793, 75.42323474310804 -15.158488271374432, 75.81232870850187 -14.848196188198123 M74.83503034457871 -15.627565626425154 C75.10062796426756 -15.415758592572784, 75.36622558395642 -15.203951558720414, 75.81232870850187 -14.848196188198123 M75.81232870850187 -14.848196188198123 C76.01854384187217 -14.660917060224653, 76.22475897524248 -14.473637932251185, 76.73768473676799 -14.007812326905688 M75.81232870850187 -14.848196188198123 C76.12173520979209 -14.567201390173757, 76.43114171108233 -14.28620659214939, 76.73768473676799 -14.007812326905688 M76.73768473676799 -14.007812326905688 C76.96236011099914 -13.775816556820741, 77.1870354852303 -13.543820786735793, 77.60729594296865 -13.10986736009568 M76.73768473676799 -14.007812326905688 C76.93222501231513 -13.806933520349606, 77.12676528786226 -13.606054713793526, 77.60729594296865 -13.10986736009568 M77.60729594296865 -13.10986736009568 C77.92296593420707 -12.739063426255685, 78.2386359254455 -12.368259492415689, 78.41758890812658 -12.158051136245305 M77.60729594296865 -13.10986736009568 C77.78618349847972 -12.899735858402112, 77.96507105399078 -12.689604356708543, 78.41758890812658 -12.158051136245305 M78.41758890812658 -12.158051136245305 C78.67678371602409 -11.810753706795408, 78.9359785239216 -11.46345627734551, 79.16523396464063 -11.156274872382312 M78.41758890812658 -12.158051136245305 C78.58824909626074 -11.929382031608512, 78.7589092843949 -11.700712926971716, 79.16523396464063 -11.156274872382312 M79.16523396464063 -11.156274872382312 C79.33523326647709 -10.895110293557206, 79.50523256831355 -10.633945714732098, 79.84715887860425 -10.108655082055241 M79.16523396464063 -11.156274872382312 C79.30893062592286 -10.935518212696437, 79.45262728720509 -10.714761553010563, 79.84715887860425 -10.108655082055241 M79.84715887860425 -10.108655082055241 C79.98611416137864 -9.861925906741147, 80.12506944415303 -9.615196731427053, 80.4605614742735 -9.019496659696287 M79.84715887860425 -10.108655082055241 C79.97608786626714 -9.879728608984093, 80.10501685393002 -9.650802135912944, 80.4605614742735 -9.019496659696287 M80.4605614742735 -9.019496659696287 C80.605302302499 -8.718939232928449, 80.75004313072449 -8.41838180616061, 81.00292114880834 -7.893275190886684 M80.4605614742735 -9.019496659696287 C80.63102038034499 -8.665535094002525, 80.80147928641648 -8.311573528308763, 81.00292114880834 -7.893275190886684 M81.00292114880834 -7.893275190886684 C81.17129541607811 -7.477387495435341, 81.33966968334789 -7.061499799983998, 81.47200922997033 -6.734618561215508 M81.00292114880834 -7.893275190886684 C81.15225608405498 -7.52441501363293, 81.30159101930161 -7.155554836379176, 81.47200922997033 -6.734618561215508 M81.47200922997033 -6.734618561215508 C81.62588888168497 -6.271157567643978, 81.77976853339962 -5.807696574072446, 81.86589813421489 -5.548287939305138 M81.47200922997033 -6.734618561215508 C81.61917165755574 -6.291388776476904, 81.76633408514115 -5.8481589917383, 81.86589813421489 -5.548287939305138 M81.86589813421489 -5.548287939305138 C81.96110053918129 -5.185239908184918, 82.05630294414769 -4.822191877064697, 82.18296928754556 -4.339158212148133 M81.86589813421489 -5.548287939305138 C81.98864780114606 -5.080190259254376, 82.11139746807724 -4.612092579203614, 82.18296928754556 -4.339158212148133 M82.18296928754556 -4.339158212148133 C82.24163169721645 -4.037939136792821, 82.30029410688732 -3.7367200614375085, 82.42191977658177 -3.1121979531509023 M82.18296928754556 -4.339158212148133 C82.24449852444683 -4.023218584868962, 82.30602776134809 -3.7072789575897906, 82.42191977658177 -3.1121979531509023 M82.42191977658177 -3.1121979531509023 C82.47211233939333 -2.722914347627115, 82.52230490220488 -2.333630742103328, 82.58176770250937 -1.872449005199798 M82.42191977658177 -3.1121979531509023 C82.45587801207633 -2.848824584467271, 82.48983624757086 -2.5854512157836402, 82.58176770250937 -1.872449005199798 M82.58176770250937 -1.872449005199798 C82.6028875700115 -1.5434900212039104, 82.62400743751363 -1.214531037208023, 82.66185621591342 -0.6250057626472757 M82.58176770250937 -1.872449005199798 C82.6029399863992 -1.5426735936555556, 82.62411227028905 -1.212898182111313, 82.66185621591342 -0.6250057626472757 M82.66185621591342 -0.6250057626472757 C82.66185621591342 -0.3218381827380583, 82.66185621591342 -0.01867060282884092, 82.66185621591342 0.625005762647271 M82.66185621591342 -0.6250057626472757 C82.66185621591342 -0.31614244971691935, 82.66185621591342 -0.007279136786563001, 82.66185621591342 0.625005762647271 M82.66185621591342 0.625005762647271 C82.64543078648335 0.88084508438857, 82.62900535705329 1.1366844061298689, 82.58176770250937 1.8724490051997846 M82.66185621591342 0.625005762647271 C82.63122618933215 1.1020931507629503, 82.60059616275089 1.5791805388786297, 82.58176770250937 1.8724490051997846 M82.58176770250937 1.8724490051997846 C82.5281227379867 2.2885087566411126, 82.47447777346405 2.70456850808244, 82.42191977658177 3.1121979531508885 M82.58176770250937 1.8724490051997846 C82.54151132345697 2.184669531608983, 82.50125494440456 2.4968900580181814, 82.42191977658177 3.1121979531508885 M82.42191977658177 3.1121979531508885 C82.37000455118356 3.3787716632839704, 82.31808932578534 3.6453453734170522, 82.18296928754556 4.339158212148129 M82.42191977658177 3.1121979531508885 C82.37156231115391 3.370772895068894, 82.32120484572604 3.6293478369868994, 82.18296928754556 4.339158212148129 M82.18296928754556 4.339158212148129 C82.10293235913724 4.644373708393272, 82.02289543072891 4.949589204638415, 81.86589813421489 5.548287939305125 M82.18296928754556 4.339158212148129 C82.10484642686477 4.637074538585976, 82.02672356618399 4.934990865023822, 81.86589813421489 5.548287939305125 M81.86589813421489 5.548287939305125 C81.75070787169541 5.895222656937858, 81.63551760917592 6.24215737457059, 81.47200922997033 6.734618561215495 M81.86589813421489 5.548287939305125 C81.71559881675087 6.000965536562557, 81.56529949928685 6.453643133819989, 81.47200922997033 6.734618561215495 M81.47200922997033 6.734618561215495 C81.29664799542333 7.167764200925396, 81.12128676087633 7.600909840635299, 81.00292114880834 7.893275190886679 M81.47200922997033 6.734618561215495 C81.36541587512083 6.997906208536081, 81.25882252027132 7.261193855856668, 81.00292114880834 7.893275190886679 M81.00292114880834 7.893275190886679 C80.88919745508578 8.129424874198827, 80.77547376136322 8.365574557510975, 80.4605614742735 9.019496659696284 M81.00292114880834 7.893275190886679 C80.8794867270685 8.149589408703003, 80.75605230532865 8.405903626519326, 80.4605614742735 9.019496659696284 M80.4605614742735 9.019496659696284 C80.28507247719301 9.331095144200583, 80.10958348011252 9.642693628704883, 79.84715887860425 10.108655082055236 M80.4605614742735 9.019496659696284 C80.24423444841975 9.403607199586341, 80.02790742256599 9.787717739476399, 79.84715887860425 10.108655082055236 M79.84715887860425 10.108655082055236 C79.61145841167335 10.47075429369851, 79.37575794474247 10.832853505341786, 79.16523396464065 11.156274872382301 M79.84715887860425 10.108655082055236 C79.6303266066011 10.441767679469732, 79.41349433459797 10.77488027688423, 79.16523396464065 11.156274872382301 M79.16523396464065 11.156274872382301 C78.88921092019046 11.526120605728897, 78.61318787574028 11.895966339075494, 78.41758890812659 12.158051136245302 M79.16523396464065 11.156274872382301 C78.8825075775644 11.53510247416074, 78.59978119048816 11.913930075939177, 78.41758890812659 12.158051136245302 M78.41758890812659 12.158051136245302 C78.24979149401351 12.355155526805873, 78.08199407990043 12.552259917366447, 77.60729594296866 13.10986736009567 M78.41758890812659 12.158051136245302 C78.16279248517266 12.457349512974176, 77.90799606221873 12.75664788970305, 77.60729594296866 13.10986736009567 M77.60729594296866 13.10986736009567 C77.39417327933846 13.32993400798995, 77.18105061570826 13.55000065588423, 76.73768473676799 14.007812326905684 M77.60729594296866 13.10986736009567 C77.42859611237326 13.294389606714377, 77.24989628177784 13.478911853333086, 76.73768473676799 14.007812326905684 M76.73768473676799 14.007812326905684 C76.44367969705215 14.274819925028538, 76.1496746573363 14.541827523151394, 75.8123287085019 14.848196188198111 M76.73768473676799 14.007812326905684 C76.45028527689237 14.268820912191707, 76.16288581701676 14.52982949747773, 75.8123287085019 14.848196188198111 M75.8123287085019 14.848196188198111 C75.49285653956773 15.102966741411647, 75.17338437063357 15.357737294625181, 74.83503034457871 15.627565626425152 M75.8123287085019 14.848196188198111 C75.50632266660774 15.092227863445922, 75.20031662471361 15.336259538693735, 74.83503034457871 15.627565626425152 M74.83503034457871 15.627565626425152 C74.5186438329158 15.848263160809857, 74.20225732125287 16.068960695194562, 73.8098055736057 16.34271804539089 M74.83503034457871 15.627565626425152 C74.61809597170007 15.778889654007644, 74.40116159882143 15.930213681590134, 73.8098055736057 16.34271804539089 M73.8098055736057 16.34271804539089 C73.55885326192562 16.49484681149083, 73.30790095024555 16.646975577590773, 72.74086726407678 16.990714730406093 M73.8098055736057 16.34271804539089 C73.4973511981529 16.532129723976105, 73.18489682270008 16.72154140256132, 72.74086726407678 16.990714730406093 M72.74086726407678 16.990714730406093 C72.30896306253867 17.216038875700683, 71.87705886100055 17.441363020995272, 71.63260791279238 17.56889292409717 M72.74086726407678 16.990714730406093 C72.4182099055246 17.159044867690863, 72.09555254697241 17.327375004975636, 71.63260791279238 17.56889292409717 M71.63260791279238 17.56889292409717 C71.21617908458231 17.75323361342348, 70.79975025637225 17.937574302749784, 70.4895815951478 18.07487676824742 M71.63260791279238 17.56889292409717 C71.28218311656377 17.724015586405333, 70.93175832033515 17.879138248713492, 70.4895815951478 18.07487676824742 M70.4895815951478 18.07487676824742 C70.2015899968735 18.180860338577517, 69.91359839859919 18.28684390890761, 69.31648525146062 18.506587066708033 M70.4895815951478 18.07487676824742 C70.21270287723453 18.17677069587831, 69.93582415932129 18.278664623509204, 69.31648525146062 18.506587066708033 M69.31648525146062 18.506587066708033 C68.99950602114758 18.60066483840701, 68.68252679083454 18.69474261010599, 68.11813938623541 18.86224982926107 M69.31648525146062 18.506587066708033 C68.89391018723492 18.632005127628442, 68.47133512300924 18.757423188548852, 68.11813938623541 18.86224982926107 M68.11813938623541 18.86224982926107 C67.84572033590986 18.92442769979744, 67.57330128558431 18.986605570333808, 66.89946825967677 19.140403561325773 M68.11813938623541 18.86224982926107 C67.65013927478043 18.969067800714534, 67.18213916332546 19.075885772167993, 66.89946825967677 19.140403561325773 M66.89946825967677 19.140403561325773 C66.54913879892352 19.197042111694813, 66.19880933817028 19.253680662063854, 65.66547965284788 19.3399052695533 M66.89946825967677 19.140403561325773 C66.60812450266815 19.187505760554348, 66.31678074565953 19.23460795978292, 65.66547965284788 19.3399052695533 M65.66547965284788 19.3399052695533 C65.17592725096493 19.387131800990044, 64.68637484908197 19.43435833242679, 64.4212442896239 19.45993515863156 M65.66547965284788 19.3399052695533 C65.31242189867866 19.37396432648393, 64.95936414450945 19.408023383414562, 64.4212442896239 19.45993515863156 M64.4212442896239 19.45993515863156 C64.12397585968432 19.469467978581825, 63.82670742974474 19.479000798532088, 63.17187500000001 19.5 M64.4212442896239 19.45993515863156 C64.11888008629585 19.46963139011607, 63.816515882967785 19.479327621600582, 63.17187500000001 19.5 M63.17187500000001 19.5 C63.17187500000001 19.5, 63.171875 19.5, 63.171875 19.5 M63.17187500000001 19.5 C63.17187500000001 19.5, 63.171875 19.5, 63.171875 19.5 M63.171875 19.5 C21.06917114517529 19.5, -21.03353270964942 19.5, -63.17187499999999 19.5 M63.171875 19.5 C21.774636258723355 19.5, -19.62260248255329 19.5, -63.17187499999999 19.5 M-63.17187499999999 19.5 C-63.43786837957432 19.491470110041757, -63.70386175914864 19.482940220083513, -64.4212442896239 19.45993515863156 M-63.17187499999999 19.5 C-63.64448846361664 19.484844206108114, -64.11710192723329 19.46968841221623, -64.4212442896239 19.45993515863156 M-64.4212442896239 19.45993515863156 C-64.71200642795752 19.43188568483915, -65.00276856629112 19.403836211046738, -65.66547965284786 19.3399052695533 M-64.4212442896239 19.45993515863156 C-64.6827249145535 19.43471043722106, -64.94420553948311 19.409485715810565, -65.66547965284786 19.3399052695533 M-65.66547965284786 19.3399052695533 C-66.03517393334005 19.280135965305284, -66.40486821383223 19.220366661057273, -66.89946825967675 19.140403561325773 M-65.66547965284786 19.3399052695533 C-65.98663888157465 19.28798273607977, -66.30779811030142 19.23606020260624, -66.89946825967675 19.140403561325773 M-66.89946825967675 19.140403561325773 C-67.34988478945141 19.037598927647252, -67.80030131922607 18.93479429396873, -68.11813938623538 18.862249829261074 M-66.89946825967675 19.140403561325773 C-67.34545041520865 19.038611044631164, -67.79143257074055 18.936818527936556, -68.11813938623538 18.862249829261074 M-68.11813938623538 18.862249829261074 C-68.3657813709545 18.788750988095746, -68.61342335567362 18.715252146930418, -69.31648525146059 18.506587066708043 M-68.11813938623538 18.862249829261074 C-68.46857744357624 18.75824165332921, -68.81901550091708 18.65423347739735, -69.31648525146059 18.506587066708043 M-69.31648525146059 18.506587066708043 C-69.60357421676247 18.40093567365565, -69.89066318206436 18.29528428060325, -70.4895815951478 18.074876768247425 M-69.31648525146059 18.506587066708043 C-69.6429748281695 18.3864358844426, -69.96946440487841 18.26628470217716, -70.4895815951478 18.074876768247425 M-70.4895815951478 18.074876768247425 C-70.81581165824439 17.930464396585553, -71.14204172134097 17.786052024923677, -71.63260791279238 17.568892924097174 M-70.4895815951478 18.074876768247425 C-70.90873499864566 17.889329990262866, -71.32788840214351 17.703783212278303, -71.63260791279238 17.568892924097174 M-71.63260791279238 17.568892924097174 C-72.01377460752857 17.37003850360222, -72.39494130226478 17.171184083107264, -72.74086726407678 16.990714730406097 M-71.63260791279238 17.568892924097174 C-71.87554054826911 17.44215512377474, -72.11847318374585 17.315417323452305, -72.74086726407678 16.990714730406097 M-72.74086726407678 16.990714730406097 C-73.01968426266343 16.821694227352317, -73.29850126125008 16.652673724298534, -73.80980557360569 16.3427180453909 M-72.74086726407678 16.990714730406097 C-72.98085095934167 16.845235204035788, -73.22083465460656 16.69975567766548, -73.80980557360569 16.3427180453909 M-73.80980557360569 16.3427180453909 C-74.20897951437868 16.06427158426905, -74.60815345515168 15.785825123147205, -74.83503034457871 15.627565626425156 M-73.80980557360569 16.3427180453909 C-74.09221771224438 16.145719562900997, -74.37462985088305 15.948721080411095, -74.83503034457871 15.627565626425156 M-74.83503034457871 15.627565626425156 C-75.06396555848 15.444995885560772, -75.2929007723813 15.262426144696388, -75.81232870850187 14.848196188198125 M-74.83503034457871 15.627565626425156 C-75.09167526291321 15.42289813366149, -75.34832018124771 15.218230640897824, -75.81232870850187 14.848196188198125 M-75.81232870850187 14.848196188198125 C-76.0412965090168 14.64025368992648, -76.27026430953175 14.432311191654836, -76.73768473676797 14.007812326905697 M-75.81232870850187 14.848196188198125 C-76.14027173813577 14.550367005581704, -76.46821476776967 14.252537822965284, -76.73768473676797 14.007812326905697 M-76.73768473676797 14.007812326905697 C-77.017922075147 13.71844426711599, -77.29815941352601 13.429076207326283, -77.60729594296865 13.109867360095677 M-76.73768473676797 14.007812326905697 C-77.05359618594385 13.68160781881927, -77.36950763511972 13.355403310732843, -77.60729594296865 13.109867360095677 M-77.60729594296865 13.109867360095677 C-77.88908223578414 12.778865146460316, -78.17086852859963 12.447862932824956, -78.41758890812658 12.158051136245307 M-77.60729594296865 13.109867360095677 C-77.81265755810969 12.868637921544074, -78.01801917325074 12.627408482992474, -78.41758890812658 12.158051136245307 M-78.41758890812658 12.158051136245307 C-78.68917634246327 11.794148716358405, -78.96076377679995 11.430246296471502, -79.16523396464063 11.156274872382316 M-78.41758890812658 12.158051136245307 C-78.70264095786715 11.776107358368911, -78.9876930076077 11.394163580492513, -79.16523396464063 11.156274872382316 M-79.16523396464063 11.156274872382316 C-79.3978077672121 10.79897905682206, -79.63038156978357 10.441683241261801, -79.84715887860425 10.108655082055249 M-79.16523396464063 11.156274872382316 C-79.37945058130693 10.827180623967024, -79.59366719797322 10.498086375551733, -79.84715887860425 10.108655082055249 M-79.84715887860425 10.108655082055249 C-79.98981353574344 9.855357292954187, -80.13246819288263 9.602059503853127, -80.4605614742735 9.019496659696289 M-79.84715887860425 10.108655082055249 C-80.03883412012073 9.768316281519867, -80.23050936163722 9.427977480984486, -80.4605614742735 9.019496659696289 M-80.4605614742735 9.019496659696289 C-80.58956112664508 8.751626121396328, -80.71856077901664 8.483755583096366, -81.00292114880834 7.893275190886686 M-80.4605614742735 9.019496659696289 C-80.63093414142267 8.665714170969933, -80.80130680857185 8.311931682243578, -81.00292114880834 7.893275190886686 M-81.00292114880834 7.893275190886686 C-81.12307843117728 7.596484380352396, -81.24323571354621 7.299693569818106, -81.47200922997033 6.73461856121551 M-81.00292114880834 7.893275190886686 C-81.11252986894851 7.62253953300003, -81.22213858908867 7.351803875113372, -81.47200922997033 6.73461856121551 M-81.47200922997033 6.73461856121551 C-81.59838965827754 6.353980847140901, -81.72477008658477 5.973343133066294, -81.86589813421489 5.5482879393051325 M-81.47200922997033 6.73461856121551 C-81.57006030694689 6.4393043396796745, -81.66811138392345 6.143990118143839, -81.86589813421489 5.5482879393051325 M-81.86589813421489 5.5482879393051325 C-81.96113978352362 5.185090252499002, -82.05638143283235 4.82189256569287, -82.18296928754556 4.339158212148136 M-81.86589813421489 5.5482879393051325 C-81.99181777320084 5.068101781934943, -82.11773741218678 4.587915624564753, -82.18296928754556 4.339158212148136 M-82.18296928754556 4.339158212148136 C-82.26525973761971 3.9166141431100927, -82.34755018769388 3.4940700740720496, -82.42191977658177 3.112197953150904 M-82.18296928754556 4.339158212148136 C-82.25457053793407 3.971500924332789, -82.32617178832257 3.603843636517442, -82.42191977658177 3.112197953150904 M-82.42191977658177 3.112197953150904 C-82.4742742216792 2.706147215529909, -82.5266286667766 2.300096477908914, -82.58176770250937 1.872449005199809 M-82.42191977658177 3.112197953150904 C-82.48228511402085 2.6440163164575603, -82.54265045145995 2.1758346797642165, -82.58176770250937 1.872449005199809 M-82.58176770250937 1.872449005199809 C-82.60621567255787 1.4916521376482663, -82.63066364260635 1.1108552700967238, -82.66185621591342 0.6250057626472781 M-82.58176770250937 1.872449005199809 C-82.61153306257624 1.4088294959920864, -82.6412984226431 0.9452099867843635, -82.66185621591342 0.6250057626472781 M-82.66185621591342 0.6250057626472781 C-82.66185621591342 0.20871840405835396, -82.66185621591342 -0.20756895453057023, -82.66185621591342 -0.6250057626472687 M-82.66185621591342 0.6250057626472781 C-82.66185621591342 0.28258887821572287, -82.66185621591342 -0.0598280062158324, -82.66185621591342 -0.6250057626472687 M-82.66185621591342 -0.6250057626472687 C-82.6454678941374 -0.8802671027240135, -82.62907957236138 -1.1355284428007584, -82.58176770250937 -1.8724490051997822 M-82.66185621591342 -0.6250057626472687 C-82.64502967741443 -0.8870926819064882, -82.62820313891544 -1.1491796011657076, -82.58176770250937 -1.8724490051997822 M-82.58176770250937 -1.8724490051997822 C-82.51969589501877 -2.3538656866320466, -82.45762408752817 -2.835282368064311, -82.42191977658177 -3.112197953150895 M-82.58176770250937 -1.8724490051997822 C-82.52381649563634 -2.3219071219468272, -82.46586528876331 -2.771365238693872, -82.42191977658177 -3.112197953150895 M-82.42191977658177 -3.112197953150895 C-82.33501935017976 -3.5584132763136194, -82.24811892377775 -4.0046285994763435, -82.18296928754556 -4.339158212148126 M-82.42191977658177 -3.112197953150895 C-82.3551627896204 -3.4549809721034053, -82.28840580265901 -3.7977639910559158, -82.18296928754556 -4.339158212148126 M-82.18296928754556 -4.339158212148126 C-82.09571753056957 -4.671886976648271, -82.00846577359357 -5.004615741148417, -81.86589813421489 -5.548287939305123 M-82.18296928754556 -4.339158212148126 C-82.09315286167555 -4.681667170675702, -82.00333643580554 -5.024176129203278, -81.86589813421489 -5.548287939305123 M-81.86589813421489 -5.548287939305123 C-81.74817284864301 -5.902857742470616, -81.63044756307113 -6.257427545636109, -81.47200922997033 -6.734618561215485 M-81.86589813421489 -5.548287939305123 C-81.74606970838849 -5.909192065827314, -81.62624128256209 -6.270096192349507, -81.47200922997033 -6.734618561215485 M-81.47200922997033 -6.734618561215485 C-81.30483831174539 -7.147533961260908, -81.13766739352046 -7.560449361306331, -81.00292114880834 -7.893275190886676 M-81.47200922997033 -6.734618561215485 C-81.36638212212162 -6.995519559762991, -81.26075501427292 -7.256420558310498, -81.00292114880834 -7.893275190886676 M-81.00292114880834 -7.893275190886676 C-80.86777255936514 -8.173914128582059, -80.73262396992193 -8.45455306627744, -80.4605614742735 -9.019496659696282 M-81.00292114880834 -7.893275190886676 C-80.83826971328465 -8.235177419727991, -80.67361827776094 -8.577079648569306, -80.4605614742735 -9.019496659696282 M-80.4605614742735 -9.019496659696282 C-80.24544525976388 -9.401457281436887, -80.03032904525426 -9.783417903177492, -79.84715887860425 -10.108655082055243 M-80.4605614742735 -9.019496659696282 C-80.30677693725782 -9.292556677540619, -80.15299240024213 -9.565616695384955, -79.84715887860425 -10.108655082055243 M-79.84715887860425 -10.108655082055243 C-79.63861618141404 -10.429032666494564, -79.43007348422381 -10.749410250933883, -79.16523396464063 -11.156274872382308 M-79.84715887860425 -10.108655082055243 C-79.6769626486131 -10.370122195408573, -79.50676641862195 -10.631589308761903, -79.16523396464063 -11.156274872382308 M-79.16523396464063 -11.156274872382308 C-78.98282384242312 -11.400687818249796, -78.80041372020558 -11.645100764117284, -78.41758890812659 -12.158051136245302 M-79.16523396464063 -11.156274872382308 C-78.91692081608936 -11.488991869647812, -78.66860766753808 -11.821708866913317, -78.41758890812659 -12.158051136245302 M-78.41758890812659 -12.158051136245302 C-78.17186958504568 -12.44668703496171, -77.92615026196476 -12.735322933678118, -77.60729594296866 -13.10986736009567 M-78.41758890812659 -12.158051136245302 C-78.11120277911323 -12.517949717249023, -77.80481665009985 -12.877848298252744, -77.60729594296866 -13.10986736009567 M-77.60729594296866 -13.10986736009567 C-77.31759868512187 -13.409003563409687, -77.02790142727507 -13.708139766723704, -76.73768473676799 -14.007812326905677 M-77.60729594296866 -13.10986736009567 C-77.38242581391714 -13.342064230522316, -77.1575556848656 -13.574261100948961, -76.73768473676799 -14.007812326905677 M-76.73768473676799 -14.007812326905677 C-76.46202252255581 -14.258161456230665, -76.18636030834365 -14.508510585555651, -75.8123287085019 -14.848196188198107 M-76.73768473676799 -14.007812326905677 C-76.44385352214256 -14.274662061680576, -76.15002230751713 -14.541511796455476, -75.8123287085019 -14.848196188198107 M-75.8123287085019 -14.848196188198107 C-75.61024631247018 -15.009351521394986, -75.40816391643848 -15.170506854591867, -74.83503034457871 -15.627565626425149 M-75.8123287085019 -14.848196188198107 C-75.43153937077118 -15.151865551808513, -75.05075003304044 -15.455534915418916, -74.83503034457871 -15.627565626425149 M-74.83503034457871 -15.627565626425149 C-74.58915841827985 -15.79907523858709, -74.34328649198099 -15.970584850749031, -73.80980557360571 -16.342718045390885 M-74.83503034457871 -15.627565626425149 C-74.62068187679073 -15.77708583855843, -74.40633340900274 -15.92660605069171, -73.80980557360571 -16.342718045390885 M-73.80980557360571 -16.342718045390885 C-73.58271186269471 -16.480383587495915, -73.3556181517837 -16.618049129600944, -72.74086726407678 -16.99071473040609 M-73.80980557360571 -16.342718045390885 C-73.5256942905804 -16.51494797478405, -73.24158300755509 -16.68717790417722, -72.74086726407678 -16.99071473040609 M-72.74086726407678 -16.99071473040609 C-72.29905108972605 -17.221209945568102, -71.85723491537533 -17.451705160730118, -71.6326079127924 -17.56889292409717 M-72.74086726407678 -16.99071473040609 C-72.33453015700766 -17.202700538892714, -71.92819304993854 -17.41468634737934, -71.6326079127924 -17.56889292409717 M-71.6326079127924 -17.56889292409717 C-71.3001502914974 -17.716062051039525, -70.96769267020241 -17.863231177981877, -70.48958159514781 -18.07487676824742 M-71.6326079127924 -17.56889292409717 C-71.20777251012521 -17.756954954563476, -70.78293710745803 -17.945016985029778, -70.48958159514781 -18.07487676824742 M-70.48958159514781 -18.07487676824742 C-70.08672883131737 -18.223130309267148, -69.68387606748693 -18.371383850286875, -69.31648525146062 -18.506587066708033 M-70.48958159514781 -18.07487676824742 C-70.1656059523898 -18.19410279958038, -69.8416303096318 -18.31332883091334, -69.31648525146062 -18.506587066708033 M-69.31648525146062 -18.506587066708033 C-69.06772705008358 -18.580417195118294, -68.81896884870655 -18.654247323528555, -68.11813938623541 -18.862249829261067 M-69.31648525146062 -18.506587066708033 C-68.96274076815402 -18.611576572510746, -68.60899628484744 -18.71656607831346, -68.11813938623541 -18.862249829261067 M-68.11813938623541 -18.862249829261067 C-67.72845909338594 -18.951191813202403, -67.33877880053647 -19.040133797143735, -66.89946825967677 -19.140403561325773 M-68.11813938623541 -18.862249829261067 C-67.74636362426416 -18.94710522086743, -67.37458786229291 -19.031960612473796, -66.89946825967677 -19.140403561325773 M-66.89946825967677 -19.140403561325773 C-66.61193308860618 -19.18689001791591, -66.3243979175356 -19.23337647450605, -65.66547965284788 -19.3399052695533 M-66.89946825967677 -19.140403561325773 C-66.53404398446919 -19.199482524233755, -66.1686197092616 -19.258561487141737, -65.66547965284788 -19.3399052695533 M-65.66547965284788 -19.3399052695533 C-65.38518144748195 -19.366945300317038, -65.10488324211603 -19.393985331080774, -64.4212442896239 -19.45993515863156 M-65.66547965284788 -19.3399052695533 C-65.17766536434051 -19.38696412728309, -64.68985107583315 -19.434022985012877, -64.4212442896239 -19.45993515863156 M-64.4212442896239 -19.45993515863156 C-63.93099912575635 -19.475656366832467, -63.4407539618888 -19.491377575033376, -63.17187500000001 -19.5 M-64.4212442896239 -19.45993515863156 C-64.16267744189207 -19.46822689416848, -63.904110594160244 -19.476518629705403, -63.17187500000001 -19.5 M-63.17187500000001 -19.5 C-63.17187500000001 -19.5, -63.171875 -19.5, -63.171875 -19.5 M-63.17187500000001 -19.5 C-63.17187500000001 -19.5, -63.171875 -19.5, -63.171875 -19.5" stroke="#4a4a6a" stroke-width="1.3" fill="none" stroke-dasharray="0 0" style=""/></g><g class="label" style="" transform="translate(-70.296875, -12)"><rect/><foreignObject width="140.59375" height="24"><div xmlns="http://www.w3.org/1999/xhtml" style="display: table-cell; white-space: nowrap; line-height: 1.5; max-width: 200px; text-align: center;"><span class="nodeLabel"><p>Workflow Complete</p></span></div></foreignObject></g></g><g class="node default" id="my-svg-flowchart-ASYNC-16" data-look="classic" transform="translate(2048.144027709961, 1145.375)"><rect class="basic label-container" style="" x="-92.6484375" y="-39" width="185.296875" height="78"/><g class="label" style="" transform="translate(-62.6484375, -24)"><rect/><foreignObject width="125.296875" height="48"><div xmlns="http://www.w3.org/1999/xhtml" style="display: table-cell; white-space: nowrap; line-height: 1.5; max-width: 200px; text-align: center;"><span class="nodeLabel"><p>Async: Wait for<br />External Callback</p></span></div></foreignObject></g></g></g></g></g><defs><filter id="my-svg-drop-shadow" height="130%" width="130%"><feDropShadow dx="4" dy="4" stdDeviation="0" flood-opacity="0.06" flood-color="#000000"/></filter></defs><defs><filter id="my-svg-drop-shadow-small" height="150%" width="150%"><feDropShadow dx="2" dy="2" stdDeviation="0" flood-opacity="0.06" flood-color="#000000"/></filter></defs><linearGradient id="my-svg-gradient" gradientUnits="objectBoundingBox" x1="0%" y1="0%" x2="100%" y2="0%"><stop offset="0%" stop-color="#4a4a6a" stop-opacity="1"/><stop offset="100%" stop-color="hsl(223.5, 7.619047619%, 6.4705882353%)" stop-opacity="1"/></linearGradient></svg>